<?xml version='1.0' encoding='utf-8'?>
<mlt title="Anonymous Submission" version="6.5.0" root="/home/morin/ods/courseware/av" producer="main bin" LC_NUMERIC="en_CA.UTF-8">
 <profile width="1920" frame_rate_den="1" height="1080" display_aspect_num="16" display_aspect_den="9" frame_rate_num="30" colorspace="709" sample_aspect_den="1" description="HD 1080p 30 fps" progressive="1" sample_aspect_num="1"/>
 <producer id="1" title="Anonymous Submission" out="9830" in="0">
  <property name="length">00:05:27:21</property>
  <property name="eof">pause</property>
  <property name="resource">audio/skiplist-i.flac</property>
  <property name="audio_index">0</property>
  <property name="video_index">-1</property>
  <property name="mute_on_pause">1</property>
  <property name="mlt_service">avformat-novalidate</property>
  <property name="meta.media.nb_streams">1</property>
  <property name="meta.media.0.stream.type">audio</property>
  <property name="meta.media.0.codec.sample_fmt">s16</property>
  <property name="meta.media.0.codec.sample_rate">44100</property>
  <property name="meta.media.0.codec.channels">1</property>
  <property name="meta.media.0.codec.name">flac</property>
  <property name="meta.media.0.codec.long_name">FLAC (Free Lossless Audio Codec)</property>
  <property name="meta.media.0.codec.bit_rate">0</property>
  <property name="seekable">1</property>
  <property name="kdenlive:folderid">-1</property>
  <property name="kdenlive:file_size">10193012</property>
  <property name="kdenlive:file_hash">cd60a9eb561ce028264c2830577bf6b0</property>
  <property name="global_feed">1</property>
  <property name="kdenlive:zone_in">0</property>
  <property name="kdenlive:zone_out">9830</property>
 </producer>
 <producer id="2" title="Anonymous Submission" out="344" in="0">
  <property name="length">345</property>
  <property name="eof">pause</property>
  <property name="resource">skiplist-i-images/skiplist-i-001.png</property>
  <property name="ttl">25</property>
  <property name="aspect_ratio">1</property>
  <property name="progressive">1</property>
  <property name="seekable">1</property>
  <property name="loop">1</property>
  <property name="meta.media.width">1921</property>
  <property name="meta.media.height">1080</property>
  <property name="mlt_service">pixbuf</property>
  <property name="kdenlive:folderid">-1</property>
  <property name="kdenlive:duration">150</property>
  <property name="kdenlive:file_size">35468</property>
  <property name="kdenlive:file_hash">bfe3f1c8dab084df5c63f743d51cce69</property>
  <property name="global_feed">1</property>
 </producer>
 <producer id="3" title="Anonymous Submission" out="439" in="0">
  <property name="length">440</property>
  <property name="eof">pause</property>
  <property name="resource">skiplist-i-images/skiplist-i-002.png</property>
  <property name="ttl">25</property>
  <property name="aspect_ratio">1</property>
  <property name="progressive">1</property>
  <property name="seekable">1</property>
  <property name="loop">1</property>
  <property name="meta.media.width">1921</property>
  <property name="meta.media.height">1080</property>
  <property name="mlt_service">pixbuf</property>
  <property name="kdenlive:folderid">-1</property>
  <property name="kdenlive:duration">150</property>
  <property name="kdenlive:file_size">40022</property>
  <property name="kdenlive:file_hash">3aed78e5b158bae70db06d05838a3c33</property>
  <property name="global_feed">1</property>
 </producer>
 <producer id="4" title="Anonymous Submission" out="163" in="0">
  <property name="length">164</property>
  <property name="eof">pause</property>
  <property name="resource">skiplist-i-images/skiplist-i-003.png</property>
  <property name="ttl">25</property>
  <property name="aspect_ratio">1</property>
  <property name="progressive">1</property>
  <property name="seekable">1</property>
  <property name="loop">1</property>
  <property name="meta.media.width">1921</property>
  <property name="meta.media.height">1080</property>
  <property name="mlt_service">pixbuf</property>
  <property name="kdenlive:folderid">-1</property>
  <property name="kdenlive:duration">150</property>
  <property name="kdenlive:file_size">43395</property>
  <property name="kdenlive:file_hash">ec6a093e2e160f19cc296e0cd9873fc0</property>
  <property name="global_feed">1</property>
 </producer>
 <producer id="5" title="Anonymous Submission" out="149" in="0">
  <property name="length">150</property>
  <property name="eof">pause</property>
  <property name="resource">skiplist-i-images/skiplist-i-004.png</property>
  <property name="ttl">25</property>
  <property name="aspect_ratio">1</property>
  <property name="progressive">1</property>
  <property name="seekable">1</property>
  <property name="loop">1</property>
  <property name="meta.media.width">1921</property>
  <property name="meta.media.height">1080</property>
  <property name="mlt_service">pixbuf</property>
  <property name="kdenlive:folderid">-1</property>
  <property name="kdenlive:duration">150</property>
  <property name="kdenlive:file_size">44119</property>
  <property name="kdenlive:file_hash">e9fa9d730286d396e9c56b88c5933dc7</property>
  <property name="global_feed">1</property>
 </producer>
 <producer id="6" title="Anonymous Submission" out="271" in="0">
  <property name="length">272</property>
  <property name="eof">pause</property>
  <property name="resource">skiplist-i-images/skiplist-i-005.png</property>
  <property name="ttl">25</property>
  <property name="aspect_ratio">1</property>
  <property name="progressive">1</property>
  <property name="seekable">1</property>
  <property name="loop">1</property>
  <property name="meta.media.width">1921</property>
  <property name="meta.media.height">1080</property>
  <property name="mlt_service">pixbuf</property>
  <property name="kdenlive:folderid">-1</property>
  <property name="kdenlive:duration">150</property>
  <property name="kdenlive:file_size">44600</property>
  <property name="kdenlive:file_hash">aa0ee079f8bf3fffe8e5c7b1c9bda933</property>
  <property name="global_feed">1</property>
 </producer>
 <producer id="7" title="Anonymous Submission" out="188" in="0">
  <property name="length">189</property>
  <property name="eof">pause</property>
  <property name="resource">skiplist-i-images/skiplist-i-006.png</property>
  <property name="ttl">25</property>
  <property name="aspect_ratio">1</property>
  <property name="progressive">1</property>
  <property name="seekable">1</property>
  <property name="loop">1</property>
  <property name="meta.media.width">1921</property>
  <property name="meta.media.height">1080</property>
  <property name="mlt_service">pixbuf</property>
  <property name="kdenlive:folderid">-1</property>
  <property name="kdenlive:duration">150</property>
  <property name="kdenlive:file_size">155519</property>
  <property name="kdenlive:file_hash">3fb2871b721b61cc6362174e7da3a3a4</property>
  <property name="global_feed">1</property>
 </producer>
 <producer id="8" title="Anonymous Submission" out="149" in="0">
  <property name="length">150</property>
  <property name="eof">pause</property>
  <property name="resource">skiplist-i-images/skiplist-i-007.png</property>
  <property name="ttl">25</property>
  <property name="aspect_ratio">1</property>
  <property name="progressive">1</property>
  <property name="seekable">1</property>
  <property name="loop">1</property>
  <property name="meta.media.width">1921</property>
  <property name="meta.media.height">1080</property>
  <property name="mlt_service">pixbuf</property>
  <property name="kdenlive:folderid">-1</property>
  <property name="kdenlive:duration">150</property>
  <property name="kdenlive:file_size">155821</property>
  <property name="kdenlive:file_hash">8989c8b26883a268d7ccf058ce6ba81e</property>
  <property name="global_feed">1</property>
 </producer>
 <producer id="9" title="Anonymous Submission" out="149" in="0">
  <property name="length">150</property>
  <property name="eof">pause</property>
  <property name="resource">skiplist-i-images/skiplist-i-008.png</property>
  <property name="ttl">25</property>
  <property name="aspect_ratio">1</property>
  <property name="progressive">1</property>
  <property name="seekable">1</property>
  <property name="loop">1</property>
  <property name="meta.media.width">1921</property>
  <property name="meta.media.height">1080</property>
  <property name="mlt_service">pixbuf</property>
  <property name="kdenlive:folderid">-1</property>
  <property name="kdenlive:duration">150</property>
  <property name="kdenlive:file_size">44936</property>
  <property name="kdenlive:file_hash">f685151018e847a16fc1ca9cd331ac36</property>
  <property name="global_feed">1</property>
 </producer>
 <producer id="10" title="Anonymous Submission" out="149" in="0">
  <property name="length">150</property>
  <property name="eof">pause</property>
  <property name="resource">skiplist-i-images/skiplist-i-009.png</property>
  <property name="ttl">25</property>
  <property name="aspect_ratio">1</property>
  <property name="progressive">1</property>
  <property name="seekable">1</property>
  <property name="loop">1</property>
  <property name="meta.media.width">1921</property>
  <property name="meta.media.height">1080</property>
  <property name="mlt_service">pixbuf</property>
  <property name="kdenlive:folderid">-1</property>
  <property name="kdenlive:duration">150</property>
  <property name="kdenlive:file_size">44974</property>
  <property name="kdenlive:file_hash">b133bebde35bb53068f578a0a4f88be7</property>
  <property name="global_feed">1</property>
 </producer>
 <producer id="11" title="Anonymous Submission" out="149" in="0">
  <property name="length">150</property>
  <property name="eof">pause</property>
  <property name="resource">skiplist-i-images/skiplist-i-010.png</property>
  <property name="ttl">25</property>
  <property name="aspect_ratio">1</property>
  <property name="progressive">1</property>
  <property name="seekable">1</property>
  <property name="loop">1</property>
  <property name="meta.media.width">1921</property>
  <property name="meta.media.height">1080</property>
  <property name="mlt_service">pixbuf</property>
  <property name="kdenlive:folderid">-1</property>
  <property name="kdenlive:duration">150</property>
  <property name="kdenlive:file_size">158778</property>
  <property name="kdenlive:file_hash">75421996434844a165ce283648dc1567</property>
  <property name="global_feed">1</property>
 </producer>
 <producer id="12" title="Anonymous Submission" out="149" in="0">
  <property name="length">150</property>
  <property name="eof">pause</property>
  <property name="resource">skiplist-i-images/skiplist-i-011.png</property>
  <property name="ttl">25</property>
  <property name="aspect_ratio">1</property>
  <property name="progressive">1</property>
  <property name="seekable">1</property>
  <property name="loop">1</property>
  <property name="meta.media.width">1921</property>
  <property name="meta.media.height">1080</property>
  <property name="mlt_service">pixbuf</property>
  <property name="kdenlive:folderid">-1</property>
  <property name="kdenlive:duration">150</property>
  <property name="kdenlive:file_size">44974</property>
  <property name="kdenlive:file_hash">b133bebde35bb53068f578a0a4f88be7</property>
  <property name="global_feed">1</property>
 </producer>
 <producer id="13" title="Anonymous Submission" out="149" in="0">
  <property name="length">150</property>
  <property name="eof">pause</property>
  <property name="resource">skiplist-i-images/skiplist-i-012.png</property>
  <property name="ttl">25</property>
  <property name="aspect_ratio">1</property>
  <property name="progressive">1</property>
  <property name="seekable">1</property>
  <property name="loop">1</property>
  <property name="meta.media.width">1921</property>
  <property name="meta.media.height">1080</property>
  <property name="mlt_service">pixbuf</property>
  <property name="kdenlive:folderid">-1</property>
  <property name="kdenlive:duration">150</property>
  <property name="kdenlive:file_size">44987</property>
  <property name="kdenlive:file_hash">a4d4368313700239051c6ee464847ce1</property>
  <property name="global_feed">1</property>
 </producer>
 <producer id="14" title="Anonymous Submission" out="149" in="0">
  <property name="length">150</property>
  <property name="eof">pause</property>
  <property name="resource">skiplist-i-images/skiplist-i-013.png</property>
  <property name="ttl">25</property>
  <property name="aspect_ratio">1</property>
  <property name="progressive">1</property>
  <property name="seekable">1</property>
  <property name="loop">1</property>
  <property name="meta.media.width">1921</property>
  <property name="meta.media.height">1080</property>
  <property name="mlt_service">pixbuf</property>
  <property name="kdenlive:folderid">-1</property>
  <property name="kdenlive:duration">150</property>
  <property name="kdenlive:file_size">155868</property>
  <property name="kdenlive:file_hash">0a2439bb1ecfaef5c87cf6e20607b822</property>
  <property name="global_feed">1</property>
 </producer>
 <producer id="15" title="Anonymous Submission" out="149" in="0">
  <property name="length">150</property>
  <property name="eof">pause</property>
  <property name="resource">skiplist-i-images/skiplist-i-014.png</property>
  <property name="ttl">25</property>
  <property name="aspect_ratio">1</property>
  <property name="progressive">1</property>
  <property name="seekable">1</property>
  <property name="loop">1</property>
  <property name="meta.media.width">1921</property>
  <property name="meta.media.height">1080</property>
  <property name="mlt_service">pixbuf</property>
  <property name="kdenlive:folderid">-1</property>
  <property name="kdenlive:duration">150</property>
  <property name="kdenlive:file_size">156094</property>
  <property name="kdenlive:file_hash">8e0f4e6d591ed5cc36fdcc231d0a013d</property>
  <property name="global_feed">1</property>
 </producer>
 <producer id="16" title="Anonymous Submission" out="149" in="0">
  <property name="length">150</property>
  <property name="eof">pause</property>
  <property name="resource">skiplist-i-images/skiplist-i-015.png</property>
  <property name="ttl">25</property>
  <property name="aspect_ratio">1</property>
  <property name="progressive">1</property>
  <property name="seekable">1</property>
  <property name="loop">1</property>
  <property name="meta.media.width">1921</property>
  <property name="meta.media.height">1080</property>
  <property name="mlt_service">pixbuf</property>
  <property name="kdenlive:folderid">-1</property>
  <property name="kdenlive:duration">150</property>
  <property name="kdenlive:file_size">156276</property>
  <property name="kdenlive:file_hash">561c6c8c9659368a34723fcf75b98ace</property>
  <property name="global_feed">1</property>
 </producer>
 <producer id="17" title="Anonymous Submission" out="149" in="0">
  <property name="length">150</property>
  <property name="eof">pause</property>
  <property name="resource">skiplist-i-images/skiplist-i-016.png</property>
  <property name="ttl">25</property>
  <property name="aspect_ratio">1</property>
  <property name="progressive">1</property>
  <property name="seekable">1</property>
  <property name="loop">1</property>
  <property name="meta.media.width">1921</property>
  <property name="meta.media.height">1080</property>
  <property name="mlt_service">pixbuf</property>
  <property name="kdenlive:folderid">-1</property>
  <property name="kdenlive:duration">150</property>
  <property name="kdenlive:file_size">45412</property>
  <property name="kdenlive:file_hash">b1529edf6d67d97e60d8cf0a9d095c84</property>
  <property name="global_feed">1</property>
 </producer>
 <producer id="18" title="Anonymous Submission" out="149" in="0">
  <property name="length">150</property>
  <property name="eof">pause</property>
  <property name="resource">skiplist-i-images/skiplist-i-017.png</property>
  <property name="ttl">25</property>
  <property name="aspect_ratio">1</property>
  <property name="progressive">1</property>
  <property name="seekable">1</property>
  <property name="loop">1</property>
  <property name="meta.media.width">1921</property>
  <property name="meta.media.height">1080</property>
  <property name="mlt_service">pixbuf</property>
  <property name="kdenlive:folderid">-1</property>
  <property name="kdenlive:duration">150</property>
  <property name="kdenlive:file_size">45415</property>
  <property name="kdenlive:file_hash">3c02d25527d627574c31a866b3e160a5</property>
  <property name="global_feed">1</property>
 </producer>
 <producer id="19" title="Anonymous Submission" out="149" in="0">
  <property name="length">150</property>
  <property name="eof">pause</property>
  <property name="resource">skiplist-i-images/skiplist-i-018.png</property>
  <property name="ttl">25</property>
  <property name="aspect_ratio">1</property>
  <property name="progressive">1</property>
  <property name="seekable">1</property>
  <property name="loop">1</property>
  <property name="meta.media.width">1921</property>
  <property name="meta.media.height">1080</property>
  <property name="mlt_service">pixbuf</property>
  <property name="kdenlive:folderid">-1</property>
  <property name="kdenlive:duration">150</property>
  <property name="kdenlive:file_size">156600</property>
  <property name="kdenlive:file_hash">40e227f41a6940927710d67c66bab089</property>
  <property name="global_feed">1</property>
 </producer>
 <producer id="20" title="Anonymous Submission" out="149" in="0">
  <property name="length">150</property>
  <property name="eof">pause</property>
  <property name="resource">skiplist-i-images/skiplist-i-019.png</property>
  <property name="ttl">25</property>
  <property name="aspect_ratio">1</property>
  <property name="progressive">1</property>
  <property name="seekable">1</property>
  <property name="loop">1</property>
  <property name="meta.media.width">1921</property>
  <property name="meta.media.height">1080</property>
  <property name="mlt_service">pixbuf</property>
  <property name="kdenlive:folderid">-1</property>
  <property name="kdenlive:duration">150</property>
  <property name="kdenlive:file_size">45732</property>
  <property name="kdenlive:file_hash">f0ee5db08375a281ba938ec85fb269f2</property>
  <property name="global_feed">1</property>
 </producer>
 <producer id="21" title="Anonymous Submission" out="149" in="0">
  <property name="length">150</property>
  <property name="eof">pause</property>
  <property name="resource">skiplist-i-images/skiplist-i-020.png</property>
  <property name="ttl">25</property>
  <property name="aspect_ratio">1</property>
  <property name="progressive">1</property>
  <property name="seekable">1</property>
  <property name="loop">1</property>
  <property name="meta.media.width">1921</property>
  <property name="meta.media.height">1080</property>
  <property name="mlt_service">pixbuf</property>
  <property name="kdenlive:folderid">-1</property>
  <property name="kdenlive:duration">150</property>
  <property name="kdenlive:file_size">156779</property>
  <property name="kdenlive:file_hash">6382af8a82e0449bbf006333d445bd75</property>
  <property name="global_feed">1</property>
 </producer>
 <producer id="22" title="Anonymous Submission" out="149" in="0">
  <property name="length">150</property>
  <property name="eof">pause</property>
  <property name="resource">skiplist-i-images/skiplist-i-021.png</property>
  <property name="ttl">25</property>
  <property name="aspect_ratio">1</property>
  <property name="progressive">1</property>
  <property name="seekable">1</property>
  <property name="loop">1</property>
  <property name="meta.media.width">1921</property>
  <property name="meta.media.height">1080</property>
  <property name="mlt_service">pixbuf</property>
  <property name="kdenlive:folderid">-1</property>
  <property name="kdenlive:duration">150</property>
  <property name="kdenlive:file_size">45979</property>
  <property name="kdenlive:file_hash">7ee2fe25570879205ea71c4cba5f0030</property>
  <property name="global_feed">1</property>
 </producer>
 <producer id="23" title="Anonymous Submission" out="149" in="0">
  <property name="length">150</property>
  <property name="eof">pause</property>
  <property name="resource">skiplist-i-images/skiplist-i-022.png</property>
  <property name="ttl">25</property>
  <property name="aspect_ratio">1</property>
  <property name="progressive">1</property>
  <property name="seekable">1</property>
  <property name="loop">1</property>
  <property name="meta.media.width">1921</property>
  <property name="meta.media.height">1080</property>
  <property name="mlt_service">pixbuf</property>
  <property name="kdenlive:folderid">-1</property>
  <property name="kdenlive:duration">150</property>
  <property name="kdenlive:file_size">159818</property>
  <property name="kdenlive:file_hash">b4e8d6187e2b5d0bf0bc4c65e085518d</property>
  <property name="global_feed">1</property>
 </producer>
 <producer id="24" title="Anonymous Submission" out="149" in="0">
  <property name="length">150</property>
  <property name="eof">pause</property>
  <property name="resource">skiplist-i-images/skiplist-i-023.png</property>
  <property name="ttl">25</property>
  <property name="aspect_ratio">1</property>
  <property name="progressive">1</property>
  <property name="seekable">1</property>
  <property name="loop">1</property>
  <property name="meta.media.width">1921</property>
  <property name="meta.media.height">1080</property>
  <property name="mlt_service">pixbuf</property>
  <property name="kdenlive:folderid">-1</property>
  <property name="kdenlive:duration">150</property>
  <property name="kdenlive:file_size">45962</property>
  <property name="kdenlive:file_hash">a221d0701c1fb64b2a4758f920cde736</property>
  <property name="global_feed">1</property>
 </producer>
 <producer id="25" title="Anonymous Submission" out="149" in="0">
  <property name="length">150</property>
  <property name="eof">pause</property>
  <property name="resource">skiplist-i-images/skiplist-i-024.png</property>
  <property name="ttl">25</property>
  <property name="aspect_ratio">1</property>
  <property name="progressive">1</property>
  <property name="seekable">1</property>
  <property name="loop">1</property>
  <property name="meta.media.width">1921</property>
  <property name="meta.media.height">1080</property>
  <property name="mlt_service">pixbuf</property>
  <property name="kdenlive:folderid">-1</property>
  <property name="kdenlive:duration">150</property>
  <property name="kdenlive:file_size">157065</property>
  <property name="kdenlive:file_hash">f52ca276778bac3aae5cb5e7446fd00c</property>
  <property name="global_feed">1</property>
 </producer>
 <producer id="26" title="Anonymous Submission" out="149" in="0">
  <property name="length">150</property>
  <property name="eof">pause</property>
  <property name="resource">skiplist-i-images/skiplist-i-025.png</property>
  <property name="ttl">25</property>
  <property name="aspect_ratio">1</property>
  <property name="progressive">1</property>
  <property name="seekable">1</property>
  <property name="loop">1</property>
  <property name="meta.media.width">1921</property>
  <property name="meta.media.height">1080</property>
  <property name="mlt_service">pixbuf</property>
  <property name="kdenlive:folderid">-1</property>
  <property name="kdenlive:duration">150</property>
  <property name="kdenlive:file_size">46282</property>
  <property name="kdenlive:file_hash">aaeaf1bbfb6f7205146e573904b6436c</property>
  <property name="global_feed">1</property>
 </producer>
 <producer id="27" title="Anonymous Submission" out="149" in="0">
  <property name="length">150</property>
  <property name="eof">pause</property>
  <property name="resource">skiplist-i-images/skiplist-i-026.png</property>
  <property name="ttl">25</property>
  <property name="aspect_ratio">1</property>
  <property name="progressive">1</property>
  <property name="seekable">1</property>
  <property name="loop">1</property>
  <property name="meta.media.width">1921</property>
  <property name="meta.media.height">1080</property>
  <property name="mlt_service">pixbuf</property>
  <property name="kdenlive:folderid">-1</property>
  <property name="kdenlive:duration">150</property>
  <property name="kdenlive:file_size">160122</property>
  <property name="kdenlive:file_hash">5cbcd7c9dbc95f7f96cb34b0e9b5c7a9</property>
  <property name="global_feed">1</property>
 </producer>
 <producer id="28" title="Anonymous Submission" out="149" in="0">
  <property name="length">150</property>
  <property name="eof">pause</property>
  <property name="resource">skiplist-i-images/skiplist-i-027.png</property>
  <property name="ttl">25</property>
  <property name="aspect_ratio">1</property>
  <property name="progressive">1</property>
  <property name="seekable">1</property>
  <property name="loop">1</property>
  <property name="meta.media.width">1921</property>
  <property name="meta.media.height">1080</property>
  <property name="mlt_service">pixbuf</property>
  <property name="kdenlive:folderid">-1</property>
  <property name="kdenlive:duration">150</property>
  <property name="kdenlive:file_size">46264</property>
  <property name="kdenlive:file_hash">2e8b80d024578df335e3582e3d763f5d</property>
  <property name="global_feed">1</property>
 </producer>
 <producer id="29" title="Anonymous Submission" out="149" in="0">
  <property name="length">150</property>
  <property name="eof">pause</property>
  <property name="resource">skiplist-i-images/skiplist-i-028.png</property>
  <property name="ttl">25</property>
  <property name="aspect_ratio">1</property>
  <property name="progressive">1</property>
  <property name="seekable">1</property>
  <property name="loop">1</property>
  <property name="meta.media.width">1921</property>
  <property name="meta.media.height">1080</property>
  <property name="mlt_service">pixbuf</property>
  <property name="kdenlive:folderid">-1</property>
  <property name="kdenlive:duration">150</property>
  <property name="kdenlive:file_size">157321</property>
  <property name="kdenlive:file_hash">13d973b3d84f50875b0be5718e6e1027</property>
  <property name="global_feed">1</property>
 </producer>
 <producer id="30" title="Anonymous Submission" out="149" in="0">
  <property name="length">150</property>
  <property name="eof">pause</property>
  <property name="resource">skiplist-i-images/skiplist-i-029.png</property>
  <property name="ttl">25</property>
  <property name="aspect_ratio">1</property>
  <property name="progressive">1</property>
  <property name="seekable">1</property>
  <property name="loop">1</property>
  <property name="meta.media.width">1921</property>
  <property name="meta.media.height">1080</property>
  <property name="mlt_service">pixbuf</property>
  <property name="kdenlive:folderid">-1</property>
  <property name="kdenlive:duration">150</property>
  <property name="kdenlive:file_size">46424</property>
  <property name="kdenlive:file_hash">2198bdaf899177eb327899078a27da63</property>
  <property name="global_feed">1</property>
 </producer>
 <producer id="31" title="Anonymous Submission" out="149" in="0">
  <property name="length">150</property>
  <property name="eof">pause</property>
  <property name="resource">skiplist-i-images/skiplist-i-030.png</property>
  <property name="ttl">25</property>
  <property name="aspect_ratio">1</property>
  <property name="progressive">1</property>
  <property name="seekable">1</property>
  <property name="loop">1</property>
  <property name="meta.media.width">1921</property>
  <property name="meta.media.height">1080</property>
  <property name="mlt_service">pixbuf</property>
  <property name="kdenlive:folderid">-1</property>
  <property name="kdenlive:duration">150</property>
  <property name="kdenlive:file_size">160263</property>
  <property name="kdenlive:file_hash">ff8753da9390b4107c625604deb9f58a</property>
  <property name="global_feed">1</property>
 </producer>
 <producer id="32" title="Anonymous Submission" out="149" in="0">
  <property name="length">150</property>
  <property name="eof">pause</property>
  <property name="resource">skiplist-i-images/skiplist-i-031.png</property>
  <property name="ttl">25</property>
  <property name="aspect_ratio">1</property>
  <property name="progressive">1</property>
  <property name="seekable">1</property>
  <property name="loop">1</property>
  <property name="meta.media.width">1921</property>
  <property name="meta.media.height">1080</property>
  <property name="mlt_service">pixbuf</property>
  <property name="kdenlive:folderid">-1</property>
  <property name="kdenlive:duration">150</property>
  <property name="kdenlive:file_size">45962</property>
  <property name="kdenlive:file_hash">50ac9519c3e2fefb0f0a323d5d7826f4</property>
  <property name="global_feed">1</property>
 </producer>
 <producer id="33" title="Anonymous Submission" out="207" in="0">
  <property name="length">208</property>
  <property name="eof">pause</property>
  <property name="resource">skiplist-i-images/skiplist-i-032.png</property>
  <property name="ttl">25</property>
  <property name="aspect_ratio">1</property>
  <property name="progressive">1</property>
  <property name="seekable">1</property>
  <property name="loop">1</property>
  <property name="meta.media.width">1921</property>
  <property name="meta.media.height">1080</property>
  <property name="mlt_service">pixbuf</property>
  <property name="kdenlive:folderid">-1</property>
  <property name="kdenlive:duration">150</property>
  <property name="kdenlive:file_size">46118</property>
  <property name="kdenlive:file_hash">ea57d119666c877926e9c4cb68ff8db4</property>
  <property name="global_feed">1</property>
 </producer>
 <producer id="34" title="Anonymous Submission" out="155" in="0">
  <property name="length">156</property>
  <property name="eof">pause</property>
  <property name="resource">skiplist-i-images/skiplist-i-033.png</property>
  <property name="ttl">25</property>
  <property name="aspect_ratio">1</property>
  <property name="progressive">1</property>
  <property name="seekable">1</property>
  <property name="loop">1</property>
  <property name="meta.media.width">1921</property>
  <property name="meta.media.height">1080</property>
  <property name="mlt_service">pixbuf</property>
  <property name="kdenlive:folderid">-1</property>
  <property name="kdenlive:duration">150</property>
  <property name="kdenlive:file_size">46681</property>
  <property name="kdenlive:file_hash">6c37010f7fab2f1b23302a9156490125</property>
  <property name="global_feed">1</property>
 </producer>
 <producer id="35" title="Anonymous Submission" out="149" in="0">
  <property name="length">150</property>
  <property name="eof">pause</property>
  <property name="resource">skiplist-i-images/skiplist-i-034.png</property>
  <property name="ttl">25</property>
  <property name="aspect_ratio">1</property>
  <property name="progressive">1</property>
  <property name="seekable">1</property>
  <property name="loop">1</property>
  <property name="meta.media.width">1921</property>
  <property name="meta.media.height">1080</property>
  <property name="mlt_service">pixbuf</property>
  <property name="kdenlive:folderid">-1</property>
  <property name="kdenlive:duration">150</property>
  <property name="kdenlive:file_size">47152</property>
  <property name="kdenlive:file_hash">f6680b80f693289018d2511c1f496e36</property>
  <property name="global_feed">1</property>
 </producer>
 <producer id="36" title="Anonymous Submission" out="149" in="0">
  <property name="length">150</property>
  <property name="eof">pause</property>
  <property name="resource">skiplist-i-images/skiplist-i-035.png</property>
  <property name="ttl">25</property>
  <property name="aspect_ratio">1</property>
  <property name="progressive">1</property>
  <property name="seekable">1</property>
  <property name="loop">1</property>
  <property name="meta.media.width">1921</property>
  <property name="meta.media.height">1080</property>
  <property name="mlt_service">pixbuf</property>
  <property name="kdenlive:folderid">-1</property>
  <property name="kdenlive:duration">150</property>
  <property name="kdenlive:file_size">158339</property>
  <property name="kdenlive:file_hash">7d357049eb2fd2c4e0f1da11b3b84868</property>
  <property name="global_feed">1</property>
 </producer>
 <producer id="37" title="Anonymous Submission" out="149" in="0">
  <property name="length">150</property>
  <property name="eof">pause</property>
  <property name="resource">skiplist-i-images/skiplist-i-036.png</property>
  <property name="ttl">25</property>
  <property name="aspect_ratio">1</property>
  <property name="progressive">1</property>
  <property name="seekable">1</property>
  <property name="loop">1</property>
  <property name="meta.media.width">1921</property>
  <property name="meta.media.height">1080</property>
  <property name="mlt_service">pixbuf</property>
  <property name="kdenlive:folderid">-1</property>
  <property name="kdenlive:duration">150</property>
  <property name="kdenlive:file_size">47290</property>
  <property name="kdenlive:file_hash">0e3cfdd70e0d4b9dc01a439c92157ece</property>
  <property name="global_feed">1</property>
 </producer>
 <producer id="38" title="Anonymous Submission" out="149" in="0">
  <property name="length">150</property>
  <property name="eof">pause</property>
  <property name="resource">skiplist-i-images/skiplist-i-037.png</property>
  <property name="ttl">25</property>
  <property name="aspect_ratio">1</property>
  <property name="progressive">1</property>
  <property name="seekable">1</property>
  <property name="loop">1</property>
  <property name="meta.media.width">1921</property>
  <property name="meta.media.height">1080</property>
  <property name="mlt_service">pixbuf</property>
  <property name="kdenlive:folderid">-1</property>
  <property name="kdenlive:duration">150</property>
  <property name="kdenlive:file_size">161132</property>
  <property name="kdenlive:file_hash">2b0e26b480c8d85ffca636e52abe1a7e</property>
  <property name="global_feed">1</property>
 </producer>
 <producer id="39" title="Anonymous Submission" out="149" in="0">
  <property name="length">150</property>
  <property name="eof">pause</property>
  <property name="resource">skiplist-i-images/skiplist-i-038.png</property>
  <property name="ttl">25</property>
  <property name="aspect_ratio">1</property>
  <property name="progressive">1</property>
  <property name="seekable">1</property>
  <property name="loop">1</property>
  <property name="meta.media.width">1921</property>
  <property name="meta.media.height">1080</property>
  <property name="mlt_service">pixbuf</property>
  <property name="kdenlive:folderid">-1</property>
  <property name="kdenlive:duration">150</property>
  <property name="kdenlive:file_size">47291</property>
  <property name="kdenlive:file_hash">fec40a38992a2386e10038a3753d8a2e</property>
  <property name="global_feed">1</property>
 </producer>
 <producer id="40" title="Anonymous Submission" out="149" in="0">
  <property name="length">150</property>
  <property name="eof">pause</property>
  <property name="resource">skiplist-i-images/skiplist-i-039.png</property>
  <property name="ttl">25</property>
  <property name="aspect_ratio">1</property>
  <property name="progressive">1</property>
  <property name="seekable">1</property>
  <property name="loop">1</property>
  <property name="meta.media.width">1921</property>
  <property name="meta.media.height">1080</property>
  <property name="mlt_service">pixbuf</property>
  <property name="kdenlive:folderid">-1</property>
  <property name="kdenlive:duration">150</property>
  <property name="kdenlive:file_size">161130</property>
  <property name="kdenlive:file_hash">f807be215a94291e34087cb0ba706859</property>
  <property name="global_feed">1</property>
 </producer>
 <producer id="41" title="Anonymous Submission" out="149" in="0">
  <property name="length">150</property>
  <property name="eof">pause</property>
  <property name="resource">skiplist-i-images/skiplist-i-040.png</property>
  <property name="ttl">25</property>
  <property name="aspect_ratio">1</property>
  <property name="progressive">1</property>
  <property name="seekable">1</property>
  <property name="loop">1</property>
  <property name="meta.media.width">1921</property>
  <property name="meta.media.height">1080</property>
  <property name="mlt_service">pixbuf</property>
  <property name="kdenlive:folderid">-1</property>
  <property name="kdenlive:duration">150</property>
  <property name="kdenlive:file_size">47297</property>
  <property name="kdenlive:file_hash">5c7d719ba20778fa33de22443a40cf55</property>
  <property name="global_feed">1</property>
 </producer>
 <producer id="42" title="Anonymous Submission" out="149" in="0">
  <property name="length">150</property>
  <property name="eof">pause</property>
  <property name="resource">skiplist-i-images/skiplist-i-041.png</property>
  <property name="ttl">25</property>
  <property name="aspect_ratio">1</property>
  <property name="progressive">1</property>
  <property name="seekable">1</property>
  <property name="loop">1</property>
  <property name="meta.media.width">1921</property>
  <property name="meta.media.height">1080</property>
  <property name="mlt_service">pixbuf</property>
  <property name="kdenlive:folderid">-1</property>
  <property name="kdenlive:duration">150</property>
  <property name="kdenlive:file_size">161137</property>
  <property name="kdenlive:file_hash">da696bad6c68f6f6041a710dceb4c2ec</property>
  <property name="global_feed">1</property>
 </producer>
 <producer id="43" title="Anonymous Submission" out="149" in="0">
  <property name="length">150</property>
  <property name="eof">pause</property>
  <property name="resource">skiplist-i-images/skiplist-i-042.png</property>
  <property name="ttl">25</property>
  <property name="aspect_ratio">1</property>
  <property name="progressive">1</property>
  <property name="seekable">1</property>
  <property name="loop">1</property>
  <property name="meta.media.width">1921</property>
  <property name="meta.media.height">1080</property>
  <property name="mlt_service">pixbuf</property>
  <property name="kdenlive:folderid">-1</property>
  <property name="kdenlive:duration">150</property>
  <property name="kdenlive:file_size">47270</property>
  <property name="kdenlive:file_hash">6374770372f8dab2d360314204f838a8</property>
  <property name="global_feed">1</property>
 </producer>
 <producer id="44" title="Anonymous Submission" out="149" in="0">
  <property name="length">150</property>
  <property name="eof">pause</property>
  <property name="resource">skiplist-i-images/skiplist-i-043.png</property>
  <property name="ttl">25</property>
  <property name="aspect_ratio">1</property>
  <property name="progressive">1</property>
  <property name="seekable">1</property>
  <property name="loop">1</property>
  <property name="meta.media.width">1921</property>
  <property name="meta.media.height">1080</property>
  <property name="mlt_service">pixbuf</property>
  <property name="kdenlive:folderid">-1</property>
  <property name="kdenlive:duration">150</property>
  <property name="kdenlive:file_size">158585</property>
  <property name="kdenlive:file_hash">3593c7e4a0540e81aac2f73b9e5c81c1</property>
  <property name="global_feed">1</property>
 </producer>
 <producer id="45" title="Anonymous Submission" out="149" in="0">
  <property name="length">150</property>
  <property name="eof">pause</property>
  <property name="resource">skiplist-i-images/skiplist-i-044.png</property>
  <property name="ttl">25</property>
  <property name="aspect_ratio">1</property>
  <property name="progressive">1</property>
  <property name="seekable">1</property>
  <property name="loop">1</property>
  <property name="meta.media.width">1921</property>
  <property name="meta.media.height">1080</property>
  <property name="mlt_service">pixbuf</property>
  <property name="kdenlive:folderid">-1</property>
  <property name="kdenlive:duration">150</property>
  <property name="kdenlive:file_size">47771</property>
  <property name="kdenlive:file_hash">fb120f3e77efd40d4b9cd5c20c2d8a0a</property>
  <property name="global_feed">1</property>
 </producer>
 <producer id="46" title="Anonymous Submission" out="149" in="0">
  <property name="length">150</property>
  <property name="eof">pause</property>
  <property name="resource">skiplist-i-images/skiplist-i-045.png</property>
  <property name="ttl">25</property>
  <property name="aspect_ratio">1</property>
  <property name="progressive">1</property>
  <property name="seekable">1</property>
  <property name="loop">1</property>
  <property name="meta.media.width">1921</property>
  <property name="meta.media.height">1080</property>
  <property name="mlt_service">pixbuf</property>
  <property name="kdenlive:folderid">-1</property>
  <property name="kdenlive:duration">150</property>
  <property name="kdenlive:file_size">159011</property>
  <property name="kdenlive:file_hash">f79e14e4cdc865088694589bf97652a3</property>
  <property name="global_feed">1</property>
 </producer>
 <producer id="47" title="Anonymous Submission" out="149" in="0">
  <property name="length">150</property>
  <property name="eof">pause</property>
  <property name="resource">skiplist-i-images/skiplist-i-046.png</property>
  <property name="ttl">25</property>
  <property name="aspect_ratio">1</property>
  <property name="progressive">1</property>
  <property name="seekable">1</property>
  <property name="loop">1</property>
  <property name="meta.media.width">1921</property>
  <property name="meta.media.height">1080</property>
  <property name="mlt_service">pixbuf</property>
  <property name="kdenlive:folderid">-1</property>
  <property name="kdenlive:duration">150</property>
  <property name="kdenlive:file_size">47882</property>
  <property name="kdenlive:file_hash">6fea7cfe296559b759a4d9cec408e586</property>
  <property name="global_feed">1</property>
 </producer>
 <producer id="48" title="Anonymous Submission" out="149" in="0">
  <property name="length">150</property>
  <property name="eof">pause</property>
  <property name="resource">skiplist-i-images/skiplist-i-047.png</property>
  <property name="ttl">25</property>
  <property name="aspect_ratio">1</property>
  <property name="progressive">1</property>
  <property name="seekable">1</property>
  <property name="loop">1</property>
  <property name="meta.media.width">1921</property>
  <property name="meta.media.height">1080</property>
  <property name="mlt_service">pixbuf</property>
  <property name="kdenlive:folderid">-1</property>
  <property name="kdenlive:duration">150</property>
  <property name="kdenlive:file_size">48267</property>
  <property name="kdenlive:file_hash">cc5484a42d7c8f9a0341bd479681fb55</property>
  <property name="global_feed">1</property>
 </producer>
 <producer id="49" title="Anonymous Submission" out="149" in="0">
  <property name="length">150</property>
  <property name="eof">pause</property>
  <property name="resource">skiplist-i-images/skiplist-i-048.png</property>
  <property name="ttl">25</property>
  <property name="aspect_ratio">1</property>
  <property name="progressive">1</property>
  <property name="seekable">1</property>
  <property name="loop">1</property>
  <property name="meta.media.width">1921</property>
  <property name="meta.media.height">1080</property>
  <property name="mlt_service">pixbuf</property>
  <property name="kdenlive:folderid">-1</property>
  <property name="kdenlive:duration">150</property>
  <property name="kdenlive:file_size">49049</property>
  <property name="kdenlive:file_hash">28a067769b25ff68ffdc61f113f41dc1</property>
  <property name="global_feed">1</property>
 </producer>
 <producer id="50" title="Anonymous Submission" out="149" in="0">
  <property name="length">150</property>
  <property name="eof">pause</property>
  <property name="resource">skiplist-i-images/skiplist-i-049.png</property>
  <property name="ttl">25</property>
  <property name="aspect_ratio">1</property>
  <property name="progressive">1</property>
  <property name="seekable">1</property>
  <property name="loop">1</property>
  <property name="meta.media.width">1921</property>
  <property name="meta.media.height">1080</property>
  <property name="mlt_service">pixbuf</property>
  <property name="kdenlive:folderid">-1</property>
  <property name="kdenlive:duration">150</property>
  <property name="kdenlive:file_size">51072</property>
  <property name="kdenlive:file_hash">1a215fc6f9a8a8a71f0e15775313067b</property>
  <property name="global_feed">1</property>
 </producer>
 <producer id="51" title="Anonymous Submission" out="900" in="0">
  <property name="length">901</property>
  <property name="eof">pause</property>
  <property name="resource">skiplist-i-images/skiplist-i-050.png</property>
  <property name="ttl">25</property>
  <property name="aspect_ratio">1</property>
  <property name="progressive">1</property>
  <property name="seekable">1</property>
  <property name="loop">1</property>
  <property name="meta.media.width">1921</property>
  <property name="meta.media.height">1080</property>
  <property name="mlt_service">pixbuf</property>
  <property name="kdenlive:folderid">-1</property>
  <property name="kdenlive:duration">150</property>
  <property name="kdenlive:file_size">52426</property>
  <property name="kdenlive:file_hash">c2d18e71e9f784e9ccf5bfd81fe13d93</property>
  <property name="global_feed">1</property>
 </producer>
 <producer id="52" title="Anonymous Submission" out="197" in="0">
  <property name="length">198</property>
  <property name="eof">pause</property>
  <property name="resource">skiplist-i-images/skiplist-i-051.png</property>
  <property name="ttl">25</property>
  <property name="aspect_ratio">1</property>
  <property name="progressive">1</property>
  <property name="seekable">1</property>
  <property name="loop">1</property>
  <property name="meta.media.width">1921</property>
  <property name="meta.media.height">1080</property>
  <property name="mlt_service">pixbuf</property>
  <property name="kdenlive:folderid">-1</property>
  <property name="kdenlive:duration">150</property>
  <property name="kdenlive:file_size">53341</property>
  <property name="kdenlive:file_hash">899251afd790d7c78c7f066461f79a1e</property>
  <property name="global_feed">1</property>
 </producer>
 <producer id="53" title="Anonymous Submission" out="159" in="0">
  <property name="length">160</property>
  <property name="eof">pause</property>
  <property name="resource">skiplist-i-images/skiplist-i-052.png</property>
  <property name="ttl">25</property>
  <property name="aspect_ratio">1</property>
  <property name="progressive">1</property>
  <property name="seekable">1</property>
  <property name="loop">1</property>
  <property name="meta.media.width">1921</property>
  <property name="meta.media.height">1080</property>
  <property name="mlt_service">pixbuf</property>
  <property name="kdenlive:folderid">-1</property>
  <property name="kdenlive:duration">150</property>
  <property name="kdenlive:file_size">54390</property>
  <property name="kdenlive:file_hash">69d5e1aba90e98d034a3676965f6d889</property>
  <property name="global_feed">1</property>
 </producer>
 <producer id="54" title="Anonymous Submission" out="195" in="0">
  <property name="length">196</property>
  <property name="eof">pause</property>
  <property name="resource">skiplist-i-images/skiplist-i-053.png</property>
  <property name="ttl">25</property>
  <property name="aspect_ratio">1</property>
  <property name="progressive">1</property>
  <property name="seekable">1</property>
  <property name="loop">1</property>
  <property name="meta.media.width">1921</property>
  <property name="meta.media.height">1080</property>
  <property name="mlt_service">pixbuf</property>
  <property name="kdenlive:folderid">-1</property>
  <property name="kdenlive:duration">150</property>
  <property name="kdenlive:file_size">54548</property>
  <property name="kdenlive:file_hash">04f9670f01a55312f6a4f0e9475fd396</property>
  <property name="global_feed">1</property>
 </producer>
 <producer id="55" title="Anonymous Submission" out="262" in="0">
  <property name="length">263</property>
  <property name="eof">pause</property>
  <property name="resource">skiplist-i-images/skiplist-i-054.png</property>
  <property name="ttl">25</property>
  <property name="aspect_ratio">1</property>
  <property name="progressive">1</property>
  <property name="seekable">1</property>
  <property name="loop">1</property>
  <property name="meta.media.width">1921</property>
  <property name="meta.media.height">1080</property>
  <property name="mlt_service">pixbuf</property>
  <property name="kdenlive:folderid">-1</property>
  <property name="kdenlive:duration">150</property>
  <property name="kdenlive:file_size">54915</property>
  <property name="kdenlive:file_hash">9d6fd5e1eff95b7da593739f4e484ba6</property>
  <property name="global_feed">1</property>
 </producer>
 <producer id="56" title="Anonymous Submission" out="149" in="0">
  <property name="length">150</property>
  <property name="eof">pause</property>
  <property name="resource">skiplist-i-images/skiplist-i-055.png</property>
  <property name="ttl">25</property>
  <property name="aspect_ratio">1</property>
  <property name="progressive">1</property>
  <property name="seekable">1</property>
  <property name="loop">1</property>
  <property name="meta.media.width">1921</property>
  <property name="meta.media.height">1080</property>
  <property name="mlt_service">pixbuf</property>
  <property name="kdenlive:folderid">-1</property>
  <property name="kdenlive:duration">150</property>
  <property name="kdenlive:file_size">55443</property>
  <property name="kdenlive:file_hash">b41340d3f17e06c5227570420dd7da48</property>
  <property name="global_feed">1</property>
 </producer>
 <producer id="57" title="Anonymous Submission" out="271" in="0">
  <property name="length">272</property>
  <property name="eof">pause</property>
  <property name="resource">skiplist-i-images/skiplist-i-056.png</property>
  <property name="ttl">25</property>
  <property name="aspect_ratio">1</property>
  <property name="progressive">1</property>
  <property name="seekable">1</property>
  <property name="loop">1</property>
  <property name="meta.media.width">1921</property>
  <property name="meta.media.height">1080</property>
  <property name="mlt_service">pixbuf</property>
  <property name="kdenlive:folderid">-1</property>
  <property name="kdenlive:duration">150</property>
  <property name="kdenlive:file_size">57058</property>
  <property name="kdenlive:file_hash">6b5ab3aeda4c84edff521ec4829bd8ed</property>
  <property name="global_feed">1</property>
 </producer>
 <producer id="58" title="Anonymous Submission" out="149" in="0">
  <property name="length">150</property>
  <property name="eof">pause</property>
  <property name="resource">skiplist-i-images/skiplist-i-057.png</property>
  <property name="ttl">25</property>
  <property name="aspect_ratio">1</property>
  <property name="progressive">1</property>
  <property name="seekable">1</property>
  <property name="loop">1</property>
  <property name="meta.media.width">1921</property>
  <property name="meta.media.height">1080</property>
  <property name="mlt_service">pixbuf</property>
  <property name="kdenlive:folderid">-1</property>
  <property name="kdenlive:duration">150</property>
  <property name="kdenlive:file_size">55511</property>
  <property name="kdenlive:file_hash">2b241cf5165cef06b3ffcfc3a8c446f9</property>
  <property name="global_feed">1</property>
 </producer>
 <producer id="59" title="Anonymous Submission" out="343" in="0">
  <property name="length">344</property>
  <property name="eof">pause</property>
  <property name="resource">skiplist-i-images/skiplist-i-058.png</property>
  <property name="ttl">25</property>
  <property name="aspect_ratio">1</property>
  <property name="progressive">1</property>
  <property name="seekable">1</property>
  <property name="loop">1</property>
  <property name="meta.media.width">1921</property>
  <property name="meta.media.height">1080</property>
  <property name="mlt_service">pixbuf</property>
  <property name="kdenlive:folderid">-1</property>
  <property name="kdenlive:duration">150</property>
  <property name="kdenlive:file_size">56797</property>
  <property name="kdenlive:file_hash">d2302da120390ca46464ebf51f4ec5e9</property>
  <property name="global_feed">1</property>
 </producer>
 <producer id="60" title="Anonymous Submission" out="149" in="0">
  <property name="length">150</property>
  <property name="eof">pause</property>
  <property name="resource">skiplist-i-images/skiplist-i-059.png</property>
  <property name="ttl">25</property>
  <property name="aspect_ratio">1</property>
  <property name="progressive">1</property>
  <property name="seekable">1</property>
  <property name="loop">1</property>
  <property name="meta.media.width">1921</property>
  <property name="meta.media.height">1080</property>
  <property name="mlt_service">pixbuf</property>
  <property name="kdenlive:folderid">-1</property>
  <property name="kdenlive:duration">150</property>
  <property name="kdenlive:file_size">56188</property>
  <property name="kdenlive:file_hash">8de79be437f99817f0136723918e1685</property>
  <property name="global_feed">1</property>
 </producer>
 <producer id="61" title="Anonymous Submission" out="189" in="0">
  <property name="length">190</property>
  <property name="eof">pause</property>
  <property name="resource">skiplist-i-images/skiplist-i-060.png</property>
  <property name="ttl">25</property>
  <property name="aspect_ratio">1</property>
  <property name="progressive">1</property>
  <property name="seekable">1</property>
  <property name="loop">1</property>
  <property name="meta.media.width">1921</property>
  <property name="meta.media.height">1080</property>
  <property name="mlt_service">pixbuf</property>
  <property name="kdenlive:folderid">-1</property>
  <property name="kdenlive:duration">150</property>
  <property name="kdenlive:file_size">57761</property>
  <property name="kdenlive:file_hash">44255f3c9fae54f4d2b03e65a517c5fc</property>
  <property name="global_feed">1</property>
 </producer>
 <producer id="62" title="Anonymous Submission" out="149" in="0">
  <property name="length">150</property>
  <property name="eof">pause</property>
  <property name="resource">skiplist-i-images/skiplist-i-061.png</property>
  <property name="ttl">25</property>
  <property name="aspect_ratio">1</property>
  <property name="progressive">1</property>
  <property name="seekable">1</property>
  <property name="loop">1</property>
  <property name="meta.media.width">1921</property>
  <property name="meta.media.height">1080</property>
  <property name="mlt_service">pixbuf</property>
  <property name="kdenlive:folderid">-1</property>
  <property name="kdenlive:duration">150</property>
  <property name="kdenlive:file_size">55879</property>
  <property name="kdenlive:file_hash">98180a2a51ba07b8841889c16a29edf6</property>
  <property name="global_feed">1</property>
 </producer>
 <producer id="63" title="Anonymous Submission" out="176" in="0">
  <property name="length">177</property>
  <property name="eof">pause</property>
  <property name="resource">skiplist-i-images/skiplist-i-062.png</property>
  <property name="ttl">25</property>
  <property name="aspect_ratio">1</property>
  <property name="progressive">1</property>
  <property name="seekable">1</property>
  <property name="loop">1</property>
  <property name="meta.media.width">1921</property>
  <property name="meta.media.height">1080</property>
  <property name="mlt_service">pixbuf</property>
  <property name="kdenlive:folderid">-1</property>
  <property name="kdenlive:duration">150</property>
  <property name="kdenlive:file_size">57014</property>
  <property name="kdenlive:file_hash">85a87c5410f0f46b8f7f8b44f7276008</property>
  <property name="global_feed">1</property>
 </producer>
 <producer id="64" title="Anonymous Submission" out="149" in="0">
  <property name="length">150</property>
  <property name="eof">pause</property>
  <property name="resource">skiplist-i-images/skiplist-i-063.png</property>
  <property name="ttl">25</property>
  <property name="aspect_ratio">1</property>
  <property name="progressive">1</property>
  <property name="seekable">1</property>
  <property name="loop">1</property>
  <property name="meta.media.width">1921</property>
  <property name="meta.media.height">1080</property>
  <property name="mlt_service">pixbuf</property>
  <property name="kdenlive:folderid">-1</property>
  <property name="kdenlive:duration">150</property>
  <property name="kdenlive:file_size">56554</property>
  <property name="kdenlive:file_hash">61cfd0c58deb7be9e3008f3fa6a208a9</property>
  <property name="global_feed">1</property>
 </producer>
 <producer id="65" title="Anonymous Submission" out="149" in="0">
  <property name="length">150</property>
  <property name="eof">pause</property>
  <property name="resource">skiplist-i-images/skiplist-i-064.png</property>
  <property name="ttl">25</property>
  <property name="aspect_ratio">1</property>
  <property name="progressive">1</property>
  <property name="seekable">1</property>
  <property name="loop">1</property>
  <property name="meta.media.width">1921</property>
  <property name="meta.media.height">1080</property>
  <property name="mlt_service">pixbuf</property>
  <property name="kdenlive:folderid">-1</property>
  <property name="kdenlive:duration">150</property>
  <property name="kdenlive:file_size">58421</property>
  <property name="kdenlive:file_hash">96a947931db396b10568957632c89a2b</property>
  <property name="global_feed">1</property>
 </producer>
 <producer id="66" title="Anonymous Submission" out="149" in="0">
  <property name="length">150</property>
  <property name="eof">pause</property>
  <property name="resource">skiplist-i-images/skiplist-i-065.png</property>
  <property name="ttl">25</property>
  <property name="aspect_ratio">1</property>
  <property name="progressive">1</property>
  <property name="seekable">1</property>
  <property name="loop">1</property>
  <property name="meta.media.width">1921</property>
  <property name="meta.media.height">1080</property>
  <property name="mlt_service">pixbuf</property>
  <property name="kdenlive:folderid">-1</property>
  <property name="kdenlive:duration">150</property>
  <property name="kdenlive:file_size">57236</property>
  <property name="kdenlive:file_hash">58300d82d1e7bae0c3d981087d2e94f5</property>
  <property name="global_feed">1</property>
 </producer>
 <producer id="67" title="Anonymous Submission" out="149" in="0">
  <property name="length">150</property>
  <property name="eof">pause</property>
  <property name="resource">skiplist-i-images/skiplist-i-066.png</property>
  <property name="ttl">25</property>
  <property name="aspect_ratio">1</property>
  <property name="progressive">1</property>
  <property name="seekable">1</property>
  <property name="loop">1</property>
  <property name="meta.media.width">1921</property>
  <property name="meta.media.height">1080</property>
  <property name="mlt_service">pixbuf</property>
  <property name="kdenlive:folderid">-1</property>
  <property name="kdenlive:duration">150</property>
  <property name="kdenlive:file_size">58729</property>
  <property name="kdenlive:file_hash">aeed59994d4d224aa13abf56102991b1</property>
  <property name="global_feed">1</property>
 </producer>
 <producer id="68" title="Anonymous Submission" out="149" in="0">
  <property name="length">150</property>
  <property name="eof">pause</property>
  <property name="resource">skiplist-i-images/skiplist-i-067.png</property>
  <property name="ttl">25</property>
  <property name="aspect_ratio">1</property>
  <property name="progressive">1</property>
  <property name="seekable">1</property>
  <property name="loop">1</property>
  <property name="meta.media.width">1921</property>
  <property name="meta.media.height">1080</property>
  <property name="mlt_service">pixbuf</property>
  <property name="kdenlive:folderid">-1</property>
  <property name="kdenlive:duration">150</property>
  <property name="kdenlive:file_size">57466</property>
  <property name="kdenlive:file_hash">a11026458d17edb4a180c7ce7ed8da82</property>
  <property name="global_feed">1</property>
 </producer>
 <producer id="69" title="Anonymous Submission" out="149" in="0">
  <property name="length">150</property>
  <property name="eof">pause</property>
  <property name="resource">skiplist-i-images/skiplist-i-068.png</property>
  <property name="ttl">25</property>
  <property name="aspect_ratio">1</property>
  <property name="progressive">1</property>
  <property name="seekable">1</property>
  <property name="loop">1</property>
  <property name="meta.media.width">1921</property>
  <property name="meta.media.height">1080</property>
  <property name="mlt_service">pixbuf</property>
  <property name="kdenlive:folderid">-1</property>
  <property name="kdenlive:duration">150</property>
  <property name="kdenlive:file_size">58600</property>
  <property name="kdenlive:file_hash">728b570852d8a3697ac5b58927fa2b19</property>
  <property name="global_feed">1</property>
 </producer>
 <producer id="70" title="Anonymous Submission" out="149" in="0">
  <property name="length">150</property>
  <property name="eof">pause</property>
  <property name="resource">skiplist-i-images/skiplist-i-069.png</property>
  <property name="ttl">25</property>
  <property name="aspect_ratio">1</property>
  <property name="progressive">1</property>
  <property name="seekable">1</property>
  <property name="loop">1</property>
  <property name="meta.media.width">1921</property>
  <property name="meta.media.height">1080</property>
  <property name="mlt_service">pixbuf</property>
  <property name="kdenlive:folderid">-1</property>
  <property name="kdenlive:duration">150</property>
  <property name="kdenlive:file_size">58220</property>
  <property name="kdenlive:file_hash">8d9d40fde923f4fa0d1f5efd9000b365</property>
  <property name="global_feed">1</property>
 </producer>
 <producer id="71" title="Anonymous Submission" out="149" in="0">
  <property name="length">150</property>
  <property name="eof">pause</property>
  <property name="resource">skiplist-i-images/skiplist-i-070.png</property>
  <property name="ttl">25</property>
  <property name="aspect_ratio">1</property>
  <property name="progressive">1</property>
  <property name="seekable">1</property>
  <property name="loop">1</property>
  <property name="meta.media.width">1921</property>
  <property name="meta.media.height">1080</property>
  <property name="mlt_service">pixbuf</property>
  <property name="kdenlive:folderid">-1</property>
  <property name="kdenlive:duration">150</property>
  <property name="kdenlive:file_size">59632</property>
  <property name="kdenlive:file_hash">9c80f10cd6a0fd464fd6e31a4c218a4a</property>
  <property name="global_feed">1</property>
 </producer>
 <producer id="72" title="Anonymous Submission" out="149" in="0">
  <property name="length">150</property>
  <property name="eof">pause</property>
  <property name="resource">skiplist-i-images/skiplist-i-071.png</property>
  <property name="ttl">25</property>
  <property name="aspect_ratio">1</property>
  <property name="progressive">1</property>
  <property name="seekable">1</property>
  <property name="loop">1</property>
  <property name="meta.media.width">1921</property>
  <property name="meta.media.height">1080</property>
  <property name="mlt_service">pixbuf</property>
  <property name="kdenlive:folderid">-1</property>
  <property name="kdenlive:duration">150</property>
  <property name="kdenlive:file_size">57319</property>
  <property name="kdenlive:file_hash">839b7e789d5b40bfb981348711df00c9</property>
  <property name="global_feed">1</property>
 </producer>
 <producer id="73" title="Anonymous Submission" out="452" in="0">
  <property name="length">453</property>
  <property name="eof">pause</property>
  <property name="resource">skiplist-i-images/skiplist-i-072.png</property>
  <property name="ttl">25</property>
  <property name="aspect_ratio">1</property>
  <property name="progressive">1</property>
  <property name="seekable">1</property>
  <property name="loop">1</property>
  <property name="meta.media.width">1921</property>
  <property name="meta.media.height">1080</property>
  <property name="mlt_service">pixbuf</property>
  <property name="kdenlive:folderid">-1</property>
  <property name="kdenlive:duration">150</property>
  <property name="kdenlive:file_size">57573</property>
  <property name="kdenlive:file_hash">04f19516c37e218b9d3ef97e26151c39</property>
  <property name="global_feed">1</property>
 </producer>
 <producer id="74" title="Anonymous Submission" out="673" in="0">
  <property name="length">674</property>
  <property name="eof">pause</property>
  <property name="resource">skiplist-i-images/skiplist-i-073.png</property>
  <property name="ttl">25</property>
  <property name="aspect_ratio">1</property>
  <property name="progressive">1</property>
  <property name="seekable">1</property>
  <property name="loop">1</property>
  <property name="meta.media.width">1921</property>
  <property name="meta.media.height">1080</property>
  <property name="mlt_service">pixbuf</property>
  <property name="kdenlive:folderid">-1</property>
  <property name="kdenlive:duration">150</property>
  <property name="kdenlive:file_size">58235</property>
  <property name="kdenlive:file_hash">b47844cbbfaae6efe684cd68f04803d0</property>
  <property name="global_feed">1</property>
 </producer>
 <producer id="75" title="Anonymous Submission" out="774" in="0">
  <property name="length">775</property>
  <property name="eof">pause</property>
  <property name="resource">skiplist-i-images/skiplist-i-074.png</property>
  <property name="ttl">25</property>
  <property name="aspect_ratio">1</property>
  <property name="progressive">1</property>
  <property name="seekable">1</property>
  <property name="loop">1</property>
  <property name="meta.media.width">1921</property>
  <property name="meta.media.height">1080</property>
  <property name="mlt_service">pixbuf</property>
  <property name="kdenlive:folderid">-1</property>
  <property name="kdenlive:duration">150</property>
  <property name="kdenlive:file_size">59079</property>
  <property name="kdenlive:file_hash">70b518a04034e57357bc30ace7c6ace7</property>
  <property name="global_feed">1</property>
 </producer>
 <producer id="76" title="Anonymous Submission" out="209" in="0">
  <property name="length">210</property>
  <property name="eof">pause</property>
  <property name="resource">skiplist-i-images/skiplist-i-075.png</property>
  <property name="ttl">25</property>
  <property name="aspect_ratio">1</property>
  <property name="progressive">1</property>
  <property name="seekable">1</property>
  <property name="loop">1</property>
  <property name="meta.media.width">1921</property>
  <property name="meta.media.height">1080</property>
  <property name="mlt_service">pixbuf</property>
  <property name="kdenlive:folderid">-1</property>
  <property name="kdenlive:duration">150</property>
  <property name="kdenlive:file_size">59686</property>
  <property name="kdenlive:file_hash">239d672eeb9b5d39842583f533101233</property>
  <property name="global_feed">1</property>
 </producer>
 <producer id="77" title="Anonymous Submission" out="149" in="0">
  <property name="length">150</property>
  <property name="eof">pause</property>
  <property name="resource">skiplist-i-images/skiplist-i-076.png</property>
  <property name="ttl">25</property>
  <property name="aspect_ratio">1</property>
  <property name="progressive">1</property>
  <property name="seekable">1</property>
  <property name="loop">1</property>
  <property name="meta.media.width">1921</property>
  <property name="meta.media.height">1080</property>
  <property name="mlt_service">pixbuf</property>
  <property name="kdenlive:folderid">-1</property>
  <property name="kdenlive:duration">150</property>
  <property name="kdenlive:file_size">60521</property>
  <property name="kdenlive:file_hash">ded169c22ecbe462d3a39ac19edca9d8</property>
  <property name="global_feed">1</property>
 </producer>
 <producer id="78" title="Anonymous Submission" out="149" in="0">
  <property name="length">150</property>
  <property name="eof">pause</property>
  <property name="resource">skiplist-i-images/skiplist-i-077.png</property>
  <property name="ttl">25</property>
  <property name="aspect_ratio">1</property>
  <property name="progressive">1</property>
  <property name="seekable">1</property>
  <property name="loop">1</property>
  <property name="meta.media.width">1921</property>
  <property name="meta.media.height">1080</property>
  <property name="mlt_service">pixbuf</property>
  <property name="kdenlive:folderid">-1</property>
  <property name="kdenlive:duration">150</property>
  <property name="kdenlive:file_size">61197</property>
  <property name="kdenlive:file_hash">128a99b59ca399e86e24c722d83e7f19</property>
  <property name="global_feed">1</property>
 </producer>
 <producer id="79" title="Anonymous Submission" out="149" in="0">
  <property name="length">150</property>
  <property name="eof">pause</property>
  <property name="resource">skiplist-i-images/skiplist-i-078.png</property>
  <property name="ttl">25</property>
  <property name="aspect_ratio">1</property>
  <property name="progressive">1</property>
  <property name="seekable">1</property>
  <property name="loop">1</property>
  <property name="meta.media.width">1921</property>
  <property name="meta.media.height">1080</property>
  <property name="mlt_service">pixbuf</property>
  <property name="kdenlive:folderid">-1</property>
  <property name="kdenlive:duration">150</property>
  <property name="kdenlive:file_size">61855</property>
  <property name="kdenlive:file_hash">80547407e8ed0ec65b71bf9cdab4aff8</property>
  <property name="global_feed">1</property>
 </producer>
 <producer id="80" title="Anonymous Submission" out="149" in="0">
  <property name="length">150</property>
  <property name="eof">pause</property>
  <property name="resource">skiplist-i-images/skiplist-i-079.png</property>
  <property name="ttl">25</property>
  <property name="aspect_ratio">1</property>
  <property name="progressive">1</property>
  <property name="seekable">1</property>
  <property name="loop">1</property>
  <property name="meta.media.width">1921</property>
  <property name="meta.media.height">1080</property>
  <property name="mlt_service">pixbuf</property>
  <property name="kdenlive:folderid">-1</property>
  <property name="kdenlive:duration">150</property>
  <property name="kdenlive:file_size">62647</property>
  <property name="kdenlive:file_hash">a2fb19073821b444a160a1e9918c1771</property>
  <property name="global_feed">1</property>
 </producer>
 <producer id="81" title="Anonymous Submission" out="149" in="0">
  <property name="length">150</property>
  <property name="eof">pause</property>
  <property name="resource">skiplist-i-images/skiplist-i-080.png</property>
  <property name="ttl">25</property>
  <property name="aspect_ratio">1</property>
  <property name="progressive">1</property>
  <property name="seekable">1</property>
  <property name="loop">1</property>
  <property name="meta.media.width">1921</property>
  <property name="meta.media.height">1080</property>
  <property name="mlt_service">pixbuf</property>
  <property name="kdenlive:folderid">-1</property>
  <property name="kdenlive:duration">150</property>
  <property name="kdenlive:file_size">63429</property>
  <property name="kdenlive:file_hash">4cea0c24a4b86294ef99c2cb84f1a52c</property>
  <property name="global_feed">1</property>
 </producer>
 <producer id="82" title="Anonymous Submission" out="149" in="0">
  <property name="length">150</property>
  <property name="eof">pause</property>
  <property name="resource">skiplist-i-images/skiplist-i-081.png</property>
  <property name="ttl">25</property>
  <property name="aspect_ratio">1</property>
  <property name="progressive">1</property>
  <property name="seekable">1</property>
  <property name="loop">1</property>
  <property name="meta.media.width">1921</property>
  <property name="meta.media.height">1080</property>
  <property name="mlt_service">pixbuf</property>
  <property name="kdenlive:folderid">-1</property>
  <property name="kdenlive:duration">150</property>
  <property name="kdenlive:file_size">64226</property>
  <property name="kdenlive:file_hash">cd3bb0a0e4b5b7953bb1b15094e6d6f3</property>
  <property name="global_feed">1</property>
 </producer>
 <producer id="83" title="Anonymous Submission" out="413" in="0">
  <property name="length">414</property>
  <property name="eof">pause</property>
  <property name="resource">skiplist-i-images/skiplist-i-082.png</property>
  <property name="ttl">25</property>
  <property name="aspect_ratio">1</property>
  <property name="progressive">1</property>
  <property name="seekable">1</property>
  <property name="loop">1</property>
  <property name="meta.media.width">1921</property>
  <property name="meta.media.height">1080</property>
  <property name="mlt_service">pixbuf</property>
  <property name="kdenlive:folderid">-1</property>
  <property name="kdenlive:duration">150</property>
  <property name="kdenlive:file_hash">35055835c61128797ec81356c7cc7ecc</property>
  <property name="kdenlive:file_size">65072</property>
  <property name="global_feed">1</property>
 </producer>
 <producer id="84" title="Anonymous Submission" out="245" in="0">
  <property name="length">246</property>
  <property name="eof">pause</property>
  <property name="resource">skiplist-i-images/skiplist-i-083.png</property>
  <property name="ttl">25</property>
  <property name="aspect_ratio">1</property>
  <property name="progressive">1</property>
  <property name="seekable">1</property>
  <property name="loop">1</property>
  <property name="meta.media.width">1921</property>
  <property name="meta.media.height">1080</property>
  <property name="mlt_service">pixbuf</property>
  <property name="kdenlive:folderid">-1</property>
  <property name="kdenlive:duration">150</property>
  <property name="kdenlive:file_size">100711</property>
  <property name="kdenlive:file_hash">5cc853dd6d7ddddbb49882ecb06b385b</property>
  <property name="global_feed">1</property>
 </producer>
 <producer id="85" title="Anonymous Submission" out="300" in="0">
  <property name="length">301</property>
  <property name="eof">pause</property>
  <property name="resource">skiplist-i-images/skiplist-i-084.png</property>
  <property name="ttl">25</property>
  <property name="aspect_ratio">1</property>
  <property name="progressive">1</property>
  <property name="seekable">1</property>
  <property name="loop">1</property>
  <property name="meta.media.width">1921</property>
  <property name="meta.media.height">1080</property>
  <property name="mlt_service">pixbuf</property>
  <property name="kdenlive:folderid">-1</property>
  <property name="kdenlive:duration">150</property>
  <property name="kdenlive:file_size">104221</property>
  <property name="kdenlive:file_hash">b91e10a525c2de8bab8d46aaea5c5805</property>
  <property name="global_feed">1</property>
 </producer>
 <producer id="174" out="14" in="0">
  <property name="length">15</property>
  <property name="eof">pause</property>
  <property name="resource">skiplist-i-images/skiplist-i-088.png</property>
  <property name="ttl">25</property>
  <property name="aspect_ratio">1</property>
  <property name="progressive">1</property>
  <property name="seekable">1</property>
  <property name="loop">1</property>
  <property name="meta.media.width">1921</property>
  <property name="meta.media.height">1080</property>
  <property name="mlt_service">pixbuf</property>
  <property name="kdenlive:folderid">-1</property>
  <property name="kdenlive:duration">15</property>
  <property name="kdenlive:file_size">90500</property>
  <property name="kdenlive:file_hash">2b17054f11ab477870e04bdb328643d5</property>
 </producer>
 <producer id="175" out="14" in="0">
  <property name="length">15</property>
  <property name="eof">pause</property>
  <property name="resource">skiplist-i-images/skiplist-i-089.png</property>
  <property name="ttl">25</property>
  <property name="aspect_ratio">1</property>
  <property name="progressive">1</property>
  <property name="seekable">1</property>
  <property name="loop">1</property>
  <property name="meta.media.width">1921</property>
  <property name="meta.media.height">1080</property>
  <property name="mlt_service">pixbuf</property>
  <property name="kdenlive:folderid">-1</property>
  <property name="kdenlive:duration">15</property>
  <property name="kdenlive:file_size">91154</property>
  <property name="kdenlive:file_hash">369ad1b64187c198594443201565e063</property>
 </producer>
 <producer id="176" out="14" in="0">
  <property name="length">15</property>
  <property name="eof">pause</property>
  <property name="resource">skiplist-i-images/skiplist-i-090.png</property>
  <property name="ttl">25</property>
  <property name="aspect_ratio">1</property>
  <property name="progressive">1</property>
  <property name="seekable">1</property>
  <property name="loop">1</property>
  <property name="meta.media.width">1921</property>
  <property name="meta.media.height">1080</property>
  <property name="mlt_service">pixbuf</property>
  <property name="kdenlive:folderid">-1</property>
  <property name="kdenlive:duration">15</property>
  <property name="kdenlive:file_size">92551</property>
  <property name="kdenlive:file_hash">fd0ad5b00479e33818df76503f8e016e</property>
 </producer>
 <producer id="177" out="14" in="0">
  <property name="length">15</property>
  <property name="eof">pause</property>
  <property name="resource">skiplist-i-images/skiplist-i-091.png</property>
  <property name="ttl">25</property>
  <property name="aspect_ratio">1</property>
  <property name="progressive">1</property>
  <property name="seekable">1</property>
  <property name="loop">1</property>
  <property name="meta.media.width">1921</property>
  <property name="meta.media.height">1080</property>
  <property name="mlt_service">pixbuf</property>
  <property name="kdenlive:folderid">-1</property>
  <property name="kdenlive:duration">15</property>
  <property name="kdenlive:file_size">96023</property>
  <property name="kdenlive:file_hash">61dbb65dd45a3c9db9d6713f8deb8f60</property>
 </producer>
 <producer id="178" out="14" in="0">
  <property name="length">15</property>
  <property name="eof">pause</property>
  <property name="resource">skiplist-i-images/skiplist-i-092.png</property>
  <property name="ttl">25</property>
  <property name="aspect_ratio">1</property>
  <property name="progressive">1</property>
  <property name="seekable">1</property>
  <property name="loop">1</property>
  <property name="meta.media.width">1921</property>
  <property name="meta.media.height">1080</property>
  <property name="mlt_service">pixbuf</property>
  <property name="kdenlive:folderid">-1</property>
  <property name="kdenlive:duration">15</property>
  <property name="kdenlive:file_size">94035</property>
  <property name="kdenlive:file_hash">69478d515bace8096e41ef0bcc21d94b</property>
 </producer>
 <producer id="179" out="14" in="0">
  <property name="length">15</property>
  <property name="eof">pause</property>
  <property name="resource">skiplist-i-images/skiplist-i-093.png</property>
  <property name="ttl">25</property>
  <property name="aspect_ratio">1</property>
  <property name="progressive">1</property>
  <property name="seekable">1</property>
  <property name="loop">1</property>
  <property name="meta.media.width">1921</property>
  <property name="meta.media.height">1080</property>
  <property name="mlt_service">pixbuf</property>
  <property name="kdenlive:folderid">-1</property>
  <property name="kdenlive:duration">15</property>
  <property name="kdenlive:file_size">98543</property>
  <property name="kdenlive:file_hash">88e22e795d3f19f6a0d2903a9b4d0d15</property>
 </producer>
 <producer id="180" out="14" in="0">
  <property name="length">15</property>
  <property name="eof">pause</property>
  <property name="resource">skiplist-i-images/skiplist-i-094.png</property>
  <property name="ttl">25</property>
  <property name="aspect_ratio">1</property>
  <property name="progressive">1</property>
  <property name="seekable">1</property>
  <property name="loop">1</property>
  <property name="meta.media.width">1921</property>
  <property name="meta.media.height">1080</property>
  <property name="mlt_service">pixbuf</property>
  <property name="kdenlive:folderid">-1</property>
  <property name="kdenlive:duration">15</property>
  <property name="kdenlive:file_size">95189</property>
  <property name="kdenlive:file_hash">a52df0917043ee532f57e2dda564e562</property>
 </producer>
 <producer id="181" out="14" in="0">
  <property name="length">15</property>
  <property name="eof">pause</property>
  <property name="resource">skiplist-i-images/skiplist-i-095.png</property>
  <property name="ttl">25</property>
  <property name="aspect_ratio">1</property>
  <property name="progressive">1</property>
  <property name="seekable">1</property>
  <property name="loop">1</property>
  <property name="meta.media.width">1921</property>
  <property name="meta.media.height">1080</property>
  <property name="mlt_service">pixbuf</property>
  <property name="kdenlive:folderid">-1</property>
  <property name="kdenlive:duration">15</property>
  <property name="kdenlive:file_size">92464</property>
  <property name="kdenlive:file_hash">8013f122c4895cb1190bfbc8f03dab70</property>
 </producer>
 <producer id="182" out="14" in="0">
  <property name="length">15</property>
  <property name="eof">pause</property>
  <property name="resource">skiplist-i-images/skiplist-i-096.png</property>
  <property name="ttl">25</property>
  <property name="aspect_ratio">1</property>
  <property name="progressive">1</property>
  <property name="seekable">1</property>
  <property name="loop">1</property>
  <property name="meta.media.width">1921</property>
  <property name="meta.media.height">1080</property>
  <property name="mlt_service">pixbuf</property>
  <property name="kdenlive:folderid">-1</property>
  <property name="kdenlive:duration">15</property>
  <property name="kdenlive:file_size">94162</property>
  <property name="kdenlive:file_hash">585448fafe25f79e8bb3e7d9c309f5bb</property>
 </producer>
 <producer id="183" out="14" in="0">
  <property name="length">15</property>
  <property name="eof">pause</property>
  <property name="resource">skiplist-i-images/skiplist-i-097.png</property>
  <property name="ttl">25</property>
  <property name="aspect_ratio">1</property>
  <property name="progressive">1</property>
  <property name="seekable">1</property>
  <property name="loop">1</property>
  <property name="meta.media.width">1921</property>
  <property name="meta.media.height">1080</property>
  <property name="mlt_service">pixbuf</property>
  <property name="kdenlive:folderid">-1</property>
  <property name="kdenlive:duration">15</property>
  <property name="kdenlive:file_size">96593</property>
  <property name="kdenlive:file_hash">44510f45683367f14aca54f9e42e3bd1</property>
 </producer>
 <producer id="184" out="14" in="0">
  <property name="length">15</property>
  <property name="eof">pause</property>
  <property name="resource">skiplist-i-images/skiplist-i-098.png</property>
  <property name="ttl">25</property>
  <property name="aspect_ratio">1</property>
  <property name="progressive">1</property>
  <property name="seekable">1</property>
  <property name="loop">1</property>
  <property name="meta.media.width">1921</property>
  <property name="meta.media.height">1080</property>
  <property name="mlt_service">pixbuf</property>
  <property name="kdenlive:folderid">-1</property>
  <property name="kdenlive:duration">15</property>
  <property name="kdenlive:file_size">99764</property>
  <property name="kdenlive:file_hash">d51c0f757598a280aa7faad86e164c01</property>
 </producer>
 <producer id="185" out="14" in="0">
  <property name="length">15</property>
  <property name="eof">pause</property>
  <property name="resource">skiplist-i-images/skiplist-i-099.png</property>
  <property name="ttl">25</property>
  <property name="aspect_ratio">1</property>
  <property name="progressive">1</property>
  <property name="seekable">1</property>
  <property name="loop">1</property>
  <property name="meta.media.width">1921</property>
  <property name="meta.media.height">1080</property>
  <property name="mlt_service">pixbuf</property>
  <property name="kdenlive:folderid">-1</property>
  <property name="kdenlive:duration">15</property>
  <property name="kdenlive:file_size">95900</property>
  <property name="kdenlive:file_hash">a6e0b1906f05901a20e21dead7577085</property>
 </producer>
 <producer id="186" out="14" in="0">
  <property name="length">15</property>
  <property name="eof">pause</property>
  <property name="resource">skiplist-i-images/skiplist-i-100.png</property>
  <property name="ttl">25</property>
  <property name="aspect_ratio">1</property>
  <property name="progressive">1</property>
  <property name="seekable">1</property>
  <property name="loop">1</property>
  <property name="meta.media.width">1921</property>
  <property name="meta.media.height">1080</property>
  <property name="mlt_service">pixbuf</property>
  <property name="kdenlive:folderid">-1</property>
  <property name="kdenlive:duration">15</property>
  <property name="kdenlive:file_size">99421</property>
  <property name="kdenlive:file_hash">923b5f8b94bbd2b7796f1f47de1a7635</property>
 </producer>
 <producer id="187" out="14" in="0">
  <property name="length">15</property>
  <property name="eof">pause</property>
  <property name="resource">skiplist-i-images/skiplist-i-101.png</property>
  <property name="ttl">25</property>
  <property name="aspect_ratio">1</property>
  <property name="progressive">1</property>
  <property name="seekable">1</property>
  <property name="loop">1</property>
  <property name="meta.media.width">1921</property>
  <property name="meta.media.height">1080</property>
  <property name="mlt_service">pixbuf</property>
  <property name="kdenlive:folderid">-1</property>
  <property name="kdenlive:duration">15</property>
  <property name="kdenlive:file_size">103230</property>
  <property name="kdenlive:file_hash">438fc7a90fc37fe5139ff122b7f5d28d</property>
 </producer>
 <producer id="188" out="14" in="0">
  <property name="length">15</property>
  <property name="eof">pause</property>
  <property name="resource">skiplist-i-images/skiplist-i-102.png</property>
  <property name="ttl">25</property>
  <property name="aspect_ratio">1</property>
  <property name="progressive">1</property>
  <property name="seekable">1</property>
  <property name="loop">1</property>
  <property name="meta.media.width">1921</property>
  <property name="meta.media.height">1080</property>
  <property name="mlt_service">pixbuf</property>
  <property name="kdenlive:folderid">-1</property>
  <property name="kdenlive:duration">15</property>
  <property name="kdenlive:file_size">93643</property>
  <property name="kdenlive:file_hash">819e706ad7cee1312b7886ad6ae766af</property>
 </producer>
 <producer id="189" out="14" in="0">
  <property name="length">15</property>
  <property name="eof">pause</property>
  <property name="resource">skiplist-i-images/skiplist-i-103.png</property>
  <property name="ttl">25</property>
  <property name="aspect_ratio">1</property>
  <property name="progressive">1</property>
  <property name="seekable">1</property>
  <property name="loop">1</property>
  <property name="meta.media.width">1921</property>
  <property name="meta.media.height">1080</property>
  <property name="mlt_service">pixbuf</property>
  <property name="kdenlive:folderid">-1</property>
  <property name="kdenlive:duration">15</property>
  <property name="kdenlive:file_size">99629</property>
  <property name="kdenlive:file_hash">71fdadebd09626f9e149e1422fafef2d</property>
 </producer>
 <producer id="190" out="14" in="0">
  <property name="length">15</property>
  <property name="eof">pause</property>
  <property name="resource">skiplist-i-images/skiplist-i-104.png</property>
  <property name="ttl">25</property>
  <property name="aspect_ratio">1</property>
  <property name="progressive">1</property>
  <property name="seekable">1</property>
  <property name="loop">1</property>
  <property name="meta.media.width">1921</property>
  <property name="meta.media.height">1080</property>
  <property name="mlt_service">pixbuf</property>
  <property name="kdenlive:folderid">-1</property>
  <property name="kdenlive:duration">15</property>
  <property name="kdenlive:file_size">100823</property>
  <property name="kdenlive:file_hash">c6d9518dd5ffdf5408d677b0055ef31d</property>
 </producer>
 <producer id="191" out="14" in="0">
  <property name="length">15</property>
  <property name="eof">pause</property>
  <property name="resource">skiplist-i-images/skiplist-i-105.png</property>
  <property name="ttl">25</property>
  <property name="aspect_ratio">1</property>
  <property name="progressive">1</property>
  <property name="seekable">1</property>
  <property name="loop">1</property>
  <property name="meta.media.width">1921</property>
  <property name="meta.media.height">1080</property>
  <property name="mlt_service">pixbuf</property>
  <property name="kdenlive:folderid">-1</property>
  <property name="kdenlive:duration">15</property>
  <property name="kdenlive:file_size">98329</property>
  <property name="kdenlive:file_hash">169f50935c5afce53723c53eb8e88e1a</property>
 </producer>
 <producer id="192" out="14" in="0">
  <property name="length">15</property>
  <property name="eof">pause</property>
  <property name="resource">skiplist-i-images/skiplist-i-106.png</property>
  <property name="ttl">25</property>
  <property name="aspect_ratio">1</property>
  <property name="progressive">1</property>
  <property name="seekable">1</property>
  <property name="loop">1</property>
  <property name="meta.media.width">1921</property>
  <property name="meta.media.height">1080</property>
  <property name="mlt_service">pixbuf</property>
  <property name="kdenlive:folderid">-1</property>
  <property name="kdenlive:duration">15</property>
  <property name="kdenlive:file_size">100608</property>
  <property name="kdenlive:file_hash">612bbca5bf04f6d22394db970066f7ad</property>
 </producer>
 <producer id="193" out="14" in="0">
  <property name="length">15</property>
  <property name="eof">pause</property>
  <property name="resource">skiplist-i-images/skiplist-i-107.png</property>
  <property name="ttl">25</property>
  <property name="aspect_ratio">1</property>
  <property name="progressive">1</property>
  <property name="seekable">1</property>
  <property name="loop">1</property>
  <property name="meta.media.width">1921</property>
  <property name="meta.media.height">1080</property>
  <property name="mlt_service">pixbuf</property>
  <property name="kdenlive:folderid">-1</property>
  <property name="kdenlive:duration">15</property>
  <property name="kdenlive:file_size">102941</property>
  <property name="kdenlive:file_hash">a2f6cac4dcabda8a6afbd5a06a386d2c</property>
 </producer>
 <producer id="194" out="14" in="0">
  <property name="length">15</property>
  <property name="eof">pause</property>
  <property name="resource">skiplist-i-images/skiplist-i-108.png</property>
  <property name="ttl">25</property>
  <property name="aspect_ratio">1</property>
  <property name="progressive">1</property>
  <property name="seekable">1</property>
  <property name="loop">1</property>
  <property name="meta.media.width">1921</property>
  <property name="meta.media.height">1080</property>
  <property name="mlt_service">pixbuf</property>
  <property name="kdenlive:folderid">-1</property>
  <property name="kdenlive:duration">15</property>
  <property name="kdenlive:file_size">98476</property>
  <property name="kdenlive:file_hash">61971ba44362274a731da73a230652d7</property>
 </producer>
 <producer id="195" out="14" in="0">
  <property name="length">15</property>
  <property name="eof">pause</property>
  <property name="resource">skiplist-i-images/skiplist-i-109.png</property>
  <property name="ttl">25</property>
  <property name="aspect_ratio">1</property>
  <property name="progressive">1</property>
  <property name="seekable">1</property>
  <property name="loop">1</property>
  <property name="meta.media.width">1921</property>
  <property name="meta.media.height">1080</property>
  <property name="mlt_service">pixbuf</property>
  <property name="kdenlive:folderid">-1</property>
  <property name="kdenlive:duration">15</property>
  <property name="kdenlive:file_size">94254</property>
  <property name="kdenlive:file_hash">080e17bdb092db443060d5dc87320bfb</property>
 </producer>
 <producer id="196" out="14" in="0">
  <property name="length">15</property>
  <property name="eof">pause</property>
  <property name="resource">skiplist-i-images/skiplist-i-110.png</property>
  <property name="ttl">25</property>
  <property name="aspect_ratio">1</property>
  <property name="progressive">1</property>
  <property name="seekable">1</property>
  <property name="loop">1</property>
  <property name="meta.media.width">1921</property>
  <property name="meta.media.height">1080</property>
  <property name="mlt_service">pixbuf</property>
  <property name="kdenlive:folderid">-1</property>
  <property name="kdenlive:duration">15</property>
  <property name="kdenlive:file_size">103516</property>
  <property name="kdenlive:file_hash">1c93fcecea0943f7b658a82cca92221f</property>
 </producer>
 <producer id="197" out="14" in="0">
  <property name="length">15</property>
  <property name="eof">pause</property>
  <property name="resource">skiplist-i-images/skiplist-i-111.png</property>
  <property name="ttl">25</property>
  <property name="aspect_ratio">1</property>
  <property name="progressive">1</property>
  <property name="seekable">1</property>
  <property name="loop">1</property>
  <property name="meta.media.width">1921</property>
  <property name="meta.media.height">1080</property>
  <property name="mlt_service">pixbuf</property>
  <property name="kdenlive:folderid">-1</property>
  <property name="kdenlive:duration">15</property>
  <property name="kdenlive:file_size">96413</property>
  <property name="kdenlive:file_hash">3682e43a7cb83d62e9524440a915613b</property>
 </producer>
 <producer id="198" out="14" in="0">
  <property name="length">15</property>
  <property name="eof">pause</property>
  <property name="resource">skiplist-i-images/skiplist-i-112.png</property>
  <property name="ttl">25</property>
  <property name="aspect_ratio">1</property>
  <property name="progressive">1</property>
  <property name="seekable">1</property>
  <property name="loop">1</property>
  <property name="meta.media.width">1921</property>
  <property name="meta.media.height">1080</property>
  <property name="mlt_service">pixbuf</property>
  <property name="kdenlive:folderid">-1</property>
  <property name="kdenlive:duration">15</property>
  <property name="kdenlive:file_hash">01afc6746f7fd2b2a63c4c72ff4a06ab</property>
  <property name="kdenlive:file_size">101017</property>
 </producer>
 <producer id="199" out="14" in="0">
  <property name="length">15</property>
  <property name="eof">pause</property>
  <property name="resource">skiplist-i-images/skiplist-i-113.png</property>
  <property name="ttl">25</property>
  <property name="aspect_ratio">1</property>
  <property name="progressive">1</property>
  <property name="seekable">1</property>
  <property name="loop">1</property>
  <property name="meta.media.width">1921</property>
  <property name="meta.media.height">1080</property>
  <property name="mlt_service">pixbuf</property>
  <property name="kdenlive:folderid">-1</property>
  <property name="kdenlive:duration">15</property>
  <property name="kdenlive:file_size">99072</property>
  <property name="kdenlive:file_hash">6168c773f7b1badd544d26843f67fb05</property>
 </producer>
 <producer id="200" out="14" in="0">
  <property name="length">15</property>
  <property name="eof">pause</property>
  <property name="resource">skiplist-i-images/skiplist-i-114.png</property>
  <property name="ttl">25</property>
  <property name="aspect_ratio">1</property>
  <property name="progressive">1</property>
  <property name="seekable">1</property>
  <property name="loop">1</property>
  <property name="meta.media.width">1921</property>
  <property name="meta.media.height">1080</property>
  <property name="mlt_service">pixbuf</property>
  <property name="kdenlive:folderid">-1</property>
  <property name="kdenlive:duration">15</property>
  <property name="kdenlive:file_size">97657</property>
  <property name="kdenlive:file_hash">92047f076c33348d5ced3fa928699d6a</property>
 </producer>
 <producer id="201" out="14" in="0">
  <property name="length">15</property>
  <property name="eof">pause</property>
  <property name="resource">skiplist-i-images/skiplist-i-115.png</property>
  <property name="ttl">25</property>
  <property name="aspect_ratio">1</property>
  <property name="progressive">1</property>
  <property name="seekable">1</property>
  <property name="loop">1</property>
  <property name="meta.media.width">1921</property>
  <property name="meta.media.height">1080</property>
  <property name="mlt_service">pixbuf</property>
  <property name="kdenlive:folderid">-1</property>
  <property name="kdenlive:duration">15</property>
  <property name="kdenlive:file_hash">94f7768838e63a299afd96ed9444ca96</property>
  <property name="kdenlive:file_size">94100</property>
 </producer>
 <producer id="202" out="14" in="0">
  <property name="length">15</property>
  <property name="eof">pause</property>
  <property name="resource">skiplist-i-images/skiplist-i-116.png</property>
  <property name="ttl">25</property>
  <property name="aspect_ratio">1</property>
  <property name="progressive">1</property>
  <property name="seekable">1</property>
  <property name="loop">1</property>
  <property name="meta.media.width">1921</property>
  <property name="meta.media.height">1080</property>
  <property name="mlt_service">pixbuf</property>
  <property name="kdenlive:folderid">-1</property>
  <property name="kdenlive:duration">15</property>
  <property name="kdenlive:file_size">102431</property>
  <property name="kdenlive:file_hash">59975156c9f8c1faabf940091edffc66</property>
 </producer>
 <producer id="203" out="14" in="0">
  <property name="length">15</property>
  <property name="eof">pause</property>
  <property name="resource">skiplist-i-images/skiplist-i-117.png</property>
  <property name="ttl">25</property>
  <property name="aspect_ratio">1</property>
  <property name="progressive">1</property>
  <property name="seekable">1</property>
  <property name="loop">1</property>
  <property name="meta.media.width">1921</property>
  <property name="meta.media.height">1080</property>
  <property name="mlt_service">pixbuf</property>
  <property name="kdenlive:folderid">-1</property>
  <property name="kdenlive:duration">15</property>
  <property name="kdenlive:file_hash">f90df00783ced119ef1d87c09dae764a</property>
  <property name="kdenlive:file_size">97918</property>
 </producer>
 <producer id="204" out="14" in="0">
  <property name="length">15</property>
  <property name="eof">pause</property>
  <property name="resource">skiplist-i-images/skiplist-i-118.png</property>
  <property name="ttl">25</property>
  <property name="aspect_ratio">1</property>
  <property name="progressive">1</property>
  <property name="seekable">1</property>
  <property name="loop">1</property>
  <property name="meta.media.width">1921</property>
  <property name="meta.media.height">1080</property>
  <property name="mlt_service">pixbuf</property>
  <property name="kdenlive:folderid">-1</property>
  <property name="kdenlive:duration">15</property>
  <property name="kdenlive:file_size">104651</property>
  <property name="kdenlive:file_hash">2c70dd72c870277bcfca3ac2ab570fb6</property>
 </producer>
 <producer id="205" out="14" in="0">
  <property name="length">15</property>
  <property name="eof">pause</property>
  <property name="resource">skiplist-i-images/skiplist-i-119.png</property>
  <property name="ttl">25</property>
  <property name="aspect_ratio">1</property>
  <property name="progressive">1</property>
  <property name="seekable">1</property>
  <property name="loop">1</property>
  <property name="meta.media.width">1921</property>
  <property name="meta.media.height">1080</property>
  <property name="mlt_service">pixbuf</property>
  <property name="kdenlive:folderid">-1</property>
  <property name="kdenlive:duration">15</property>
  <property name="kdenlive:file_hash">f4ce102e858ab096bad7e8917986806f</property>
  <property name="kdenlive:file_size">102815</property>
 </producer>
 <producer id="206" out="14" in="0">
  <property name="length">15</property>
  <property name="eof">pause</property>
  <property name="resource">skiplist-i-images/skiplist-i-120.png</property>
  <property name="ttl">25</property>
  <property name="aspect_ratio">1</property>
  <property name="progressive">1</property>
  <property name="seekable">1</property>
  <property name="loop">1</property>
  <property name="meta.media.width">1921</property>
  <property name="meta.media.height">1080</property>
  <property name="mlt_service">pixbuf</property>
  <property name="kdenlive:folderid">-1</property>
  <property name="kdenlive:duration">15</property>
  <property name="kdenlive:file_hash">18e780e3fe6a6511a5409cd0bb303198</property>
  <property name="kdenlive:file_size">93362</property>
 </producer>
 <producer id="207" out="14" in="0">
  <property name="length">15</property>
  <property name="eof">pause</property>
  <property name="resource">skiplist-i-images/skiplist-i-121.png</property>
  <property name="ttl">25</property>
  <property name="aspect_ratio">1</property>
  <property name="progressive">1</property>
  <property name="seekable">1</property>
  <property name="loop">1</property>
  <property name="meta.media.width">1921</property>
  <property name="meta.media.height">1080</property>
  <property name="mlt_service">pixbuf</property>
  <property name="kdenlive:folderid">-1</property>
  <property name="kdenlive:duration">15</property>
  <property name="kdenlive:file_hash">abdaef0919063cd475f4f81ecddbd6cf</property>
  <property name="kdenlive:file_size">100203</property>
 </producer>
 <producer id="208" out="14" in="0">
  <property name="length">15</property>
  <property name="eof">pause</property>
  <property name="resource">skiplist-i-images/skiplist-i-122.png</property>
  <property name="ttl">25</property>
  <property name="aspect_ratio">1</property>
  <property name="progressive">1</property>
  <property name="seekable">1</property>
  <property name="loop">1</property>
  <property name="meta.media.width">1921</property>
  <property name="meta.media.height">1080</property>
  <property name="mlt_service">pixbuf</property>
  <property name="kdenlive:folderid">-1</property>
  <property name="kdenlive:duration">15</property>
  <property name="kdenlive:file_hash">c14846a6d3257cb673aec62011efab18</property>
  <property name="kdenlive:file_size">98842</property>
 </producer>
 <producer id="209" out="14" in="0">
  <property name="length">15</property>
  <property name="eof">pause</property>
  <property name="resource">skiplist-i-images/skiplist-i-123.png</property>
  <property name="ttl">25</property>
  <property name="aspect_ratio">1</property>
  <property name="progressive">1</property>
  <property name="seekable">1</property>
  <property name="loop">1</property>
  <property name="meta.media.width">1921</property>
  <property name="meta.media.height">1080</property>
  <property name="mlt_service">pixbuf</property>
  <property name="kdenlive:folderid">-1</property>
  <property name="kdenlive:duration">15</property>
  <property name="kdenlive:file_size">105268</property>
  <property name="kdenlive:file_hash">d22a463f800e993d02617b381661c920</property>
 </producer>
 <producer id="210" out="14" in="0">
  <property name="length">15</property>
  <property name="eof">pause</property>
  <property name="resource">skiplist-i-images/skiplist-i-124.png</property>
  <property name="ttl">25</property>
  <property name="aspect_ratio">1</property>
  <property name="progressive">1</property>
  <property name="seekable">1</property>
  <property name="loop">1</property>
  <property name="meta.media.width">1921</property>
  <property name="meta.media.height">1080</property>
  <property name="mlt_service">pixbuf</property>
  <property name="kdenlive:folderid">-1</property>
  <property name="kdenlive:duration">15</property>
  <property name="kdenlive:file_size">107294</property>
  <property name="kdenlive:file_hash">a665f34fae0ce4007edc9e3760c499f7</property>
 </producer>
 <producer id="211" out="14" in="0">
  <property name="length">15</property>
  <property name="eof">pause</property>
  <property name="resource">skiplist-i-images/skiplist-i-125.png</property>
  <property name="ttl">25</property>
  <property name="aspect_ratio">1</property>
  <property name="progressive">1</property>
  <property name="seekable">1</property>
  <property name="loop">1</property>
  <property name="meta.media.width">1921</property>
  <property name="meta.media.height">1080</property>
  <property name="mlt_service">pixbuf</property>
  <property name="kdenlive:folderid">-1</property>
  <property name="kdenlive:duration">15</property>
  <property name="kdenlive:file_size">101388</property>
  <property name="kdenlive:file_hash">53d77404aae065e94d3476d826534055</property>
 </producer>
 <producer id="218" title="Anonymous Submission" out="480" in="0">
  <property name="length">00:00:16:01</property>
  <property name="eof">pause</property>
  <property name="resource">audio/skiplist-i-b.flac</property>
  <property name="audio_index">0</property>
  <property name="video_index">-1</property>
  <property name="mute_on_pause">1</property>
  <property name="mlt_service">avformat-novalidate</property>
  <property name="meta.media.nb_streams">1</property>
  <property name="meta.media.0.stream.type">audio</property>
  <property name="meta.media.0.codec.sample_fmt">s16</property>
  <property name="meta.media.0.codec.sample_rate">44100</property>
  <property name="meta.media.0.codec.channels">1</property>
  <property name="meta.media.0.codec.name">flac</property>
  <property name="meta.media.0.codec.long_name">FLAC (Free Lossless Audio Codec)</property>
  <property name="meta.media.0.codec.bit_rate">0</property>
  <property name="seekable">1</property>
  <property name="kdenlive:folderid">-1</property>
  <property name="kdenlive:file_size">632384</property>
  <property name="kdenlive:file_hash">0914e2874bf65184fcb13445f2f11d4c</property>
  <property name="global_feed">1</property>
 </producer>
 <producer id="219" out="149" in="0">
  <property name="length">150</property>
  <property name="eof">pause</property>
  <property name="resource">skiplist-i-images/skiplist-i-126.png</property>
  <property name="ttl">25</property>
  <property name="aspect_ratio">1</property>
  <property name="progressive">1</property>
  <property name="seekable">1</property>
  <property name="loop">1</property>
  <property name="meta.media.width">1921</property>
  <property name="meta.media.height">1080</property>
  <property name="mlt_service">pixbuf</property>
  <property name="kdenlive:folderid">-1</property>
  <property name="kdenlive:duration">150</property>
  <property name="kdenlive:file_size">28514</property>
  <property name="kdenlive:file_hash">0f9a0732a95ef7fa696478aaa245e89d</property>
 </producer>
 <playlist id="main bin">
  <property name="kdenlive:docproperties.audiotargettrack">1</property>
  <property name="kdenlive:docproperties.decimalPoint">.</property>
  <property name="kdenlive:docproperties.dirtypreviewchunks"/>
  <property name="kdenlive:docproperties.disablepreview">0</property>
  <property name="kdenlive:docproperties.documentid">1494362715779</property>
  <property name="kdenlive:docproperties.enableproxy">0</property>
  <property name="kdenlive:docproperties.generateimageproxy">0</property>
  <property name="kdenlive:docproperties.generateproxy">0</property>
  <property name="kdenlive:docproperties.kdenliveversion">17.04.0</property>
  <property name="kdenlive:docproperties.position">10738</property>
  <property name="kdenlive:docproperties.previewchunks"/>
  <property name="kdenlive:docproperties.previewextension"/>
  <property name="kdenlive:docproperties.previewparameters"/>
  <property name="kdenlive:docproperties.profile">atsc_1080p_30</property>
  <property name="kdenlive:docproperties.proxyextension">mpg</property>
  <property name="kdenlive:docproperties.proxyimageminsize">2000</property>
  <property name="kdenlive:docproperties.proxyminsize">1000</property>
  <property name="kdenlive:docproperties.proxyparams">-vf scale=640:-1 -g 5 -qscale 6 -ab 128k -vcodec mpeg2video -acodec mp2</property>
  <property name="kdenlive:docproperties.version">0.95</property>
  <property name="kdenlive:docproperties.verticalzoom">1</property>
  <property name="kdenlive:docproperties.videotargettrack">2</property>
  <property name="kdenlive:docproperties.zonein">0</property>
  <property name="kdenlive:docproperties.zoneout">100</property>
  <property name="kdenlive:docproperties.zoom">6</property>
  <property name="kdenlive:documentnotes"/>
  <property name="kdenlive:clipgroups"/>
  <property name="xml_retain">1</property>
  <entry out="9830" producer="1" in="0"/>
  <entry out="149" producer="2" in="0"/>
  <entry out="149" producer="3" in="0"/>
  <entry out="149" producer="4" in="0"/>
  <entry out="149" producer="5" in="0"/>
  <entry out="149" producer="6" in="0"/>
  <entry out="149" producer="7" in="0"/>
  <entry out="149" producer="8" in="0"/>
  <entry out="149" producer="9" in="0"/>
  <entry out="149" producer="10" in="0"/>
  <entry out="149" producer="11" in="0"/>
  <entry out="149" producer="12" in="0"/>
  <entry out="149" producer="13" in="0"/>
  <entry out="149" producer="14" in="0"/>
  <entry out="149" producer="15" in="0"/>
  <entry out="149" producer="16" in="0"/>
  <entry out="149" producer="17" in="0"/>
  <entry out="149" producer="18" in="0"/>
  <entry out="149" producer="19" in="0"/>
  <entry out="149" producer="20" in="0"/>
  <entry out="149" producer="21" in="0"/>
  <entry out="149" producer="22" in="0"/>
  <entry out="149" producer="23" in="0"/>
  <entry out="149" producer="24" in="0"/>
  <entry out="149" producer="25" in="0"/>
  <entry out="149" producer="26" in="0"/>
  <entry out="149" producer="27" in="0"/>
  <entry out="149" producer="28" in="0"/>
  <entry out="149" producer="29" in="0"/>
  <entry out="149" producer="30" in="0"/>
  <entry out="149" producer="31" in="0"/>
  <entry out="149" producer="32" in="0"/>
  <entry out="149" producer="33" in="0"/>
  <entry out="149" producer="34" in="0"/>
  <entry out="149" producer="35" in="0"/>
  <entry out="149" producer="36" in="0"/>
  <entry out="149" producer="37" in="0"/>
  <entry out="149" producer="38" in="0"/>
  <entry out="149" producer="39" in="0"/>
  <entry out="149" producer="40" in="0"/>
  <entry out="149" producer="41" in="0"/>
  <entry out="149" producer="42" in="0"/>
  <entry out="149" producer="43" in="0"/>
  <entry out="149" producer="44" in="0"/>
  <entry out="149" producer="45" in="0"/>
  <entry out="149" producer="46" in="0"/>
  <entry out="149" producer="47" in="0"/>
  <entry out="149" producer="48" in="0"/>
  <entry out="149" producer="49" in="0"/>
  <entry out="149" producer="50" in="0"/>
  <entry out="149" producer="51" in="0"/>
  <entry out="149" producer="52" in="0"/>
  <entry out="149" producer="53" in="0"/>
  <entry out="149" producer="54" in="0"/>
  <entry out="149" producer="55" in="0"/>
  <entry out="149" producer="56" in="0"/>
  <entry out="149" producer="57" in="0"/>
  <entry out="149" producer="58" in="0"/>
  <entry out="149" producer="59" in="0"/>
  <entry out="149" producer="60" in="0"/>
  <entry out="149" producer="61" in="0"/>
  <entry out="149" producer="62" in="0"/>
  <entry out="149" producer="63" in="0"/>
  <entry out="149" producer="64" in="0"/>
  <entry out="149" producer="65" in="0"/>
  <entry out="149" producer="66" in="0"/>
  <entry out="149" producer="67" in="0"/>
  <entry out="149" producer="68" in="0"/>
  <entry out="149" producer="69" in="0"/>
  <entry out="149" producer="70" in="0"/>
  <entry out="149" producer="71" in="0"/>
  <entry out="149" producer="72" in="0"/>
  <entry out="149" producer="73" in="0"/>
  <entry out="149" producer="74" in="0"/>
  <entry out="149" producer="75" in="0"/>
  <entry out="149" producer="76" in="0"/>
  <entry out="149" producer="77" in="0"/>
  <entry out="149" producer="78" in="0"/>
  <entry out="149" producer="79" in="0"/>
  <entry out="149" producer="80" in="0"/>
  <entry out="149" producer="81" in="0"/>
  <entry out="149" producer="82" in="0"/>
  <entry out="149" producer="83" in="0"/>
  <entry out="149" producer="84" in="0"/>
  <entry out="149" producer="85" in="0"/>
  <entry out="14" producer="174" in="0"/>
  <entry out="14" producer="175" in="0"/>
  <entry out="14" producer="176" in="0"/>
  <entry out="14" producer="177" in="0"/>
  <entry out="14" producer="178" in="0"/>
  <entry out="14" producer="179" in="0"/>
  <entry out="14" producer="180" in="0"/>
  <entry out="14" producer="181" in="0"/>
  <entry out="14" producer="182" in="0"/>
  <entry out="14" producer="183" in="0"/>
  <entry out="14" producer="184" in="0"/>
  <entry out="14" producer="185" in="0"/>
  <entry out="14" producer="186" in="0"/>
  <entry out="14" producer="187" in="0"/>
  <entry out="14" producer="188" in="0"/>
  <entry out="14" producer="189" in="0"/>
  <entry out="14" producer="190" in="0"/>
  <entry out="14" producer="191" in="0"/>
  <entry out="14" producer="192" in="0"/>
  <entry out="14" producer="193" in="0"/>
  <entry out="14" producer="194" in="0"/>
  <entry out="14" producer="195" in="0"/>
  <entry out="14" producer="196" in="0"/>
  <entry out="14" producer="197" in="0"/>
  <entry out="14" producer="198" in="0"/>
  <entry out="14" producer="199" in="0"/>
  <entry out="14" producer="200" in="0"/>
  <entry out="14" producer="201" in="0"/>
  <entry out="14" producer="202" in="0"/>
  <entry out="14" producer="203" in="0"/>
  <entry out="14" producer="204" in="0"/>
  <entry out="14" producer="205" in="0"/>
  <entry out="14" producer="206" in="0"/>
  <entry out="14" producer="207" in="0"/>
  <entry out="14" producer="208" in="0"/>
  <entry out="14" producer="209" in="0"/>
  <entry out="14" producer="210" in="0"/>
  <entry out="14" producer="211" in="0"/>
  <entry out="480" producer="218" in="0"/>
  <entry out="149" producer="219" in="0"/>
 </playlist>
 <producer id="black" out="15868" in="0">
  <property name="length">15869</property>
  <property name="eof">pause</property>
  <property name="resource">black</property>
  <property name="aspect_ratio">0</property>
  <property name="mlt_service">colour</property>
  <property name="set.test_audio">0</property>
 </producer>
 <playlist id="black_track">
  <entry out="10888" producer="black" in="0"/>
 </playlist>
 <producer id="1_playlist2" title="Anonymous Submission" out="9830" in="0">
  <property name="length">00:05:27:21</property>
  <property name="eof">pause</property>
  <property name="resource">audio/skiplist-i.flac</property>
  <property name="audio_index">0</property>
  <property name="video_index">-1</property>
  <property name="mute_on_pause">1</property>
  <property name="mlt_service">avformat-novalidate</property>
  <property name="seekable">1</property>
  <property name="kdenlive:folderid">-1</property>
  <property name="kdenlive:file_size">10193012</property>
  <property name="kdenlive:file_hash">cd60a9eb561ce028264c2830577bf6b0</property>
  <property name="global_feed">1</property>
  <property name="xml">was here</property>
  <property name="meta.media.nb_streams">1</property>
  <property name="meta.media.0.stream.type">audio</property>
  <property name="meta.media.0.codec.sample_fmt">s16</property>
  <property name="meta.media.0.codec.sample_rate">44100</property>
  <property name="meta.media.0.codec.channels">1</property>
  <property name="meta.media.0.codec.name">flac</property>
  <property name="meta.media.0.codec.long_name">FLAC (Free Lossless Audio Codec)</property>
  <property name="meta.media.0.codec.bit_rate">0</property>
 </producer>
 <producer id="218_playlist2" title="Anonymous Submission" out="480" in="0">
  <property name="length">00:00:16:01</property>
  <property name="eof">pause</property>
  <property name="resource">audio/skiplist-i-b.flac</property>
  <property name="audio_index">0</property>
  <property name="video_index">-1</property>
  <property name="mute_on_pause">1</property>
  <property name="mlt_service">avformat-novalidate</property>
  <property name="seekable">1</property>
  <property name="kdenlive:folderid">-1</property>
  <property name="kdenlive:file_size">632384</property>
  <property name="kdenlive:file_hash">0914e2874bf65184fcb13445f2f11d4c</property>
  <property name="global_feed">1</property>
  <property name="xml">was here</property>
  <property name="meta.media.nb_streams">1</property>
  <property name="meta.media.0.stream.type">audio</property>
  <property name="meta.media.0.codec.sample_fmt">s16</property>
  <property name="meta.media.0.codec.sample_rate">44100</property>
  <property name="meta.media.0.codec.channels">1</property>
  <property name="meta.media.0.codec.name">flac</property>
  <property name="meta.media.0.codec.long_name">FLAC (Free Lossless Audio Codec)</property>
  <property name="meta.media.0.codec.bit_rate">0</property>
 </producer>
 <playlist id="playlist2">
  <property name="kdenlive:track_name">Audio 1</property>
  <property name="kdenlive:audio_track">1</property>
  <entry out="2039" producer="1_playlist2" in="0"/>
  <blank length="124"/>
  <entry out="2087" producer="1_playlist2" in="2040"/>
  <blank length="31"/>
  <entry out="2139" producer="1_playlist2" in="2088"/>
  <blank length="30"/>
  <entry out="2202" producer="1_playlist2" in="2140"/>
  <blank length="19"/>
  <entry out="2247" producer="1_playlist2" in="2203"/>
  <blank length="21"/>
  <entry out="2294" producer="1_playlist2" in="2248"/>
  <blank length="27"/>
  <entry out="2335" producer="1_playlist2" in="2295"/>
  <blank length="25"/>
  <entry out="2865" producer="1_playlist2" in="2336"/>
  <blank length="458"/>
  <entry out="5138" producer="1_playlist2" in="2986"/>
  <entry out="8578" producer="1_playlist2" in="5139"/>
  <blank length="50"/>
  <entry out="9445" producer="1_playlist2" in="8579"/>
  <entry out="480" producer="218_playlist2" in="0"/>
 </playlist>
 <playlist id="playlist3">
  <property name="kdenlive:track_name">Video 1</property>
  <entry out="126" producer="2" in="0"/>
  <entry out="438" producer="3" in="0"/>
  <entry out="162" producer="4" in="4"/>
  <entry out="149" producer="5" in="0"/>
  <entry out="270" producer="6" in="0"/>
  <entry out="187" producer="7" in="0"/>
  <entry out="149" producer="8" in="9"/>
  <entry out="99" producer="9" in="0"/>
  <entry out="135" producer="10" in="0"/>
  <entry out="149" producer="11" in="0"/>
  <entry out="112" producer="12" in="0"/>
  <entry out="29" producer="13" in="0"/>
  <entry out="49" producer="14" in="0"/>
  <entry out="29" producer="15" in="0"/>
  <entry out="29" producer="16" in="0"/>
  <entry out="19" producer="17" in="0"/>
  <entry out="29" producer="18" in="0"/>
  <entry out="48" producer="19" in="0"/>
  <entry out="29" producer="20" in="0"/>
  <entry out="51" producer="21" in="0"/>
  <entry out="29" producer="22" in="0"/>
  <entry out="51" producer="23" in="0"/>
  <entry out="29" producer="24" in="0"/>
  <entry out="44" producer="25" in="0"/>
  <entry out="29" producer="26" in="0"/>
  <entry out="37" producer="27" in="0"/>
  <entry out="29" producer="28" in="0"/>
  <entry out="36" producer="29" in="0"/>
  <entry out="29" producer="30" in="0"/>
  <entry out="41" producer="31" in="0"/>
  <entry out="31" producer="32" in="0"/>
  <entry out="201" producer="33" in="0"/>
  <entry out="121" producer="34" in="0"/>
  <entry out="149" producer="35" in="6"/>
  <entry out="29" producer="36" in="0"/>
  <entry out="29" producer="37" in="0"/>
  <entry out="29" producer="38" in="0"/>
  <entry out="29" producer="39" in="0"/>
  <entry out="29" producer="40" in="0"/>
  <entry out="29" producer="41" in="0"/>
  <entry out="29" producer="42" in="0"/>
  <entry out="29" producer="43" in="0"/>
  <entry out="29" producer="44" in="0"/>
  <entry out="29" producer="45" in="0"/>
  <entry out="29" producer="46" in="0"/>
  <entry out="29" producer="47" in="0"/>
  <entry out="29" producer="48" in="0"/>
  <entry out="44" producer="49" in="0"/>
  <entry out="78" producer="50" in="0"/>
  <entry out="899" producer="51" in="0"/>
  <entry out="185" producer="52" in="0"/>
  <entry out="158" producer="53" in="0"/>
  <entry out="194" producer="54" in="0"/>
  <entry out="238" producer="55" in="0"/>
  <entry out="81" producer="56" in="0"/>
  <entry out="265" producer="57" in="0"/>
  <entry out="29" producer="58" in="0"/>
  <entry out="290" producer="59" in="0"/>
  <entry out="48" producer="60" in="0"/>
  <entry out="188" producer="61" in="0"/>
  <entry out="29" producer="62" in="0"/>
  <entry out="166" producer="63" in="0"/>
  <entry out="29" producer="64" in="0"/>
  <entry out="100" producer="65" in="0"/>
  <entry out="48" producer="66" in="0"/>
  <entry out="31" producer="67" in="0"/>
  <entry out="27" producer="68" in="0"/>
  <entry out="142" producer="69" in="0"/>
  <entry out="28" producer="70" in="0"/>
  <entry out="145" producer="71" in="0"/>
  <entry out="149" producer="72" in="4"/>
  <entry out="451" producer="73" in="0"/>
  <entry out="672" producer="74" in="204"/>
  <entry out="773" producer="75" in="0"/>
  <entry out="174" producer="76" in="0"/>
  <entry out="29" producer="77" in="0"/>
  <entry out="29" producer="78" in="0"/>
  <entry out="29" producer="79" in="0"/>
  <entry out="29" producer="80" in="0"/>
  <entry out="29" producer="81" in="0"/>
  <entry out="29" producer="82" in="0"/>
  <entry out="412" producer="83" in="0"/>
  <entry out="244" producer="84" in="0"/>
  <entry out="299" producer="85" in="0"/>
  <entry out="14" producer="174" in="0"/>
  <entry out="14" producer="175" in="0"/>
  <entry out="14" producer="176" in="0"/>
  <entry out="14" producer="177" in="0"/>
  <entry out="14" producer="178" in="0"/>
  <entry out="14" producer="179" in="0"/>
  <entry out="14" producer="180" in="0"/>
  <entry out="14" producer="181" in="0"/>
  <entry out="14" producer="182" in="0"/>
  <entry out="14" producer="183" in="0"/>
  <entry out="14" producer="184" in="0"/>
  <entry out="14" producer="185" in="0"/>
  <entry out="14" producer="186" in="0"/>
  <entry out="14" producer="187" in="0"/>
  <entry out="14" producer="188" in="0"/>
  <entry out="14" producer="189" in="0"/>
  <entry out="14" producer="190" in="0"/>
  <entry out="14" producer="191" in="0"/>
  <entry out="14" producer="192" in="0"/>
  <entry out="14" producer="193" in="0"/>
  <entry out="14" producer="194" in="0"/>
  <entry out="14" producer="195" in="0"/>
  <entry out="14" producer="196" in="0"/>
  <entry out="14" producer="197" in="0"/>
  <entry out="14" producer="198" in="0"/>
  <entry out="14" producer="199" in="0"/>
  <entry out="14" producer="200" in="0"/>
  <entry out="14" producer="201" in="0"/>
  <entry out="14" producer="202" in="0"/>
  <entry out="14" producer="203" in="0"/>
  <entry out="14" producer="204" in="0"/>
  <entry out="14" producer="205" in="0"/>
  <entry out="14" producer="206" in="0"/>
  <entry out="14" producer="207" in="0"/>
  <entry out="14" producer="208" in="0"/>
  <entry out="14" producer="209" in="0"/>
  <entry out="14" producer="210" in="0"/>
  <entry out="14" producer="211" in="0"/>
  <entry out="149" producer="219" in="0"/>
 </playlist>
 <tractor id="maintractor" title="Anonymous Submission" global_feed="1" out="10888" in="0">
  <track producer="black_track"/>
  <track producer="playlist2" hide="video"/>
  <track producer="playlist3"/>
  <transition id="transition0">
   <property name="a_track">0</property>
   <property name="b_track">1</property>
   <property name="mlt_service">mix</property>
   <property name="always_active">1</property>
   <property name="combine">1</property>
   <property name="internal_added">237</property>
  </transition>
  <transition id="transition1">
   <property name="a_track">0</property>
   <property name="b_track">2</property>
   <property name="mlt_service">mix</property>
   <property name="always_active">1</property>
   <property name="combine">1</property>
   <property name="internal_added">237</property>
  </transition>
  <transition id="transition2">
   <property name="a_track">0</property>
   <property name="b_track">2</property>
   <property name="compositing">0</property>
   <property name="distort">0</property>
   <property name="mlt_service">qtblend</property>
   <property name="always_active">1</property>
   <property name="internal_added">237</property>
  </transition>
 </tractor>
</mlt>
